<svg preserveAspectRatio="none" overflow="visible" style="display: block;" width="24.6" height="24.6" viewBox="0 0 24.6 24.6" fill="none" xmlns="http://www.w3.org/2000/svg">
<g id="Message Icon">
<circle id="Ellipse 33961" cx="12.3" cy="12.3" r="12" stroke="black" stroke-width="0.6"/>
<path id="Vector 234263935" d="M13.0512 7.1931C14.6186 6.40939 14.4276 4.19922 14.0683 3.07441C17.8653 5.44002 16.5521 9.28172 15.3115 10.9171C17.3633 10.8743 17.8835 8.56439 17.9815 7.44231C18.9076 8.17255 20.4768 10.7979 19.344 15.4572C17.928 21.2813 12.466 21.3967 10.2607 21.121C8.05534 20.8453 4.81369 19.649 4.73354 13.7714C4.65339 7.89382 10.2607 6.85455 10.2607 6.85455C10.2607 6.85455 8.21546 9.42752 10.033 10.0111C10.9505 10.3057 11.51 7.96369 13.0512 7.1931Z" stroke="black" stroke-width="0.6"/>
<path id="Vector 234263936" d="M9.87733 15.8351C8.83832 15.6574 9.52654 12.3649 9.52654 12.3649C9.52654 12.3649 7.71467 13.7468 7.42039 15.4413C7.1592 16.9453 7.57802 18.5897 10.0331 19.1211C11.703 19.4826 13.7014 19.0943 14.1287 16.372C14.4492 14.3303 12.8011 12.172 13.0512 10.1475C13.0512 10.1475 12.1526 10.6156 11.3529 12.6548C10.8728 13.8791 11.5961 16.2716 9.87733 15.8351Z" stroke="black" stroke-width="0.6" stroke-linecap="round"/>
</g>
</svg>
