<svg preserveAspectRatio="none" width="100%" height="100%" overflow="visible" style="display: block;" viewBox="0 0 292.913 269.676" fill="none" xmlns="http://www.w3.org/2000/svg">
<path id="Vector 8" d="M236.424 20.7858C236.915 22.1974 239.812 27.3014 259.096 48.5232C266.58 56.7602 270.046 61.3154 275.801 72.4172C278.485 77.5949 280.947 84.7538 284.473 102.205C287.02 114.814 289.515 135.339 291.008 149.074C294.252 178.915 288.033 190.472 284.007 197.259C279.773 204.396 270.841 212.669 262.459 220.863C250.985 232.079 236.165 243.562 224.28 251.508C216.501 256.709 198.5 261.404 170.308 266.812C156.861 269.391 144.705 268.893 132.262 267.714C107.178 265.336 87.6592 258.82 75.402 254.044C58.5017 247.459 42.5857 232.703 31.5011 220.711C23.2752 211.813 18.1901 198.084 13.4301 184.796C3.64367 157.476 2.54932 143.06 1.44213 134.256C-0.507399 118.753 4.31286 109.062 9.40387 96.4518C18.6621 73.5187 28.8306 55.2745 33.4914 48.3297C41.3812 36.5738 56.7458 25.6585 71.5711 16.2386C81.1371 10.1604 99.1201 8.45072 125.521 2.88767C137.982 1.97621 143.769 1.56593 147.108 1.36408C149.175 1.29545 151.999 1.29545 155.09 1.00007" stroke="var(--stroke-0, black)" stroke-width="2" stroke-linecap="round" stroke-linejoin="round"/>
</svg>
