<svg preserveAspectRatio="none" width="100%" height="100%" overflow="visible" style="display: block;" viewBox="0 0 32.2598 21.4676" fill="none" xmlns="http://www.w3.org/2000/svg">
<path id="Vector 7" d="M1.00026 8.64511C2.5046 8.19987 8.91073 8.55393 21.3909 11.2583C24.705 11.9764 27.53 11.9101 29.1969 11.383C30.8638 10.8559 31.322 9.68456 31.2534 8.5174C31.113 6.12887 28.7781 4.35766 26.2561 3.00833C20.8891 0.13693 11.9766 0.536831 5.22806 2.99093C3.78983 3.51393 3.23011 5.39628 2.8277 6.87743C2.42529 8.35858 2.52602 9.91821 3.24481 11.2318C6.35318 16.9122 15.4296 18.461 22.1084 20.2842C24.635 20.974 25.7167 19.5861 26.1186 18.3453C26.5205 17.1045 26.2881 15.644 25.7542 14.3872C24.7204 11.9538 21.9362 10.299 18.2273 9.03614C16.1816 8.33964 13.5566 8.40368 11.7266 8.77746C9.89667 9.15125 8.87804 10.0562 8.33948 11.2185C7.80092 12.3808 7.77331 13.7731 8.3878 14.9176C9.6833 17.3305 12.881 18.0359 15.5207 18.2182C16.8329 18.3088 18.0972 17.8027 18.9993 17.0337C20.8207 15.481 21.0425 12.4927 20.8583 9.7015C20.7645 8.28124 19.8276 6.97205 18.4024 5.95182C15.226 3.67811 10.9138 3.58913 7.81926 4.28771C6.38306 4.61193 5.784 6.38345 5.42757 7.76523C5.07114 9.14701 5.11988 10.4711 5.69735 11.5195C6.87934 13.6655 9.79146 14.5429 11.3509 14.7696C11.7336 14.8253 10.8958 13.4855 9.14462 12.9444C7.39344 12.4033 4.65435 12.3757 3.67626 12.8724C2.69818 13.3691 3.56409 14.391 5.24886 15.4635" stroke="var(--stroke-0, black)" stroke-width="2" stroke-linecap="round" stroke-linejoin="round"/>
</svg>
