<svg preserveAspectRatio="none" width="100%" height="100%" overflow="visible" style="display: block;" viewBox="0 0 128.012 61.1402" fill="none" xmlns="http://www.w3.org/2000/svg">
<g id="Vector 232">
<path d="M50.9587 4.0105C55.3926 3.92456 54.9044 4.09417 54.9518 4.09417C57.2179 3.88068 58.9227 3.45266 60.8448 2.71559C63.5976 1.65997 64.8883 1.29112 68.6236 1.16251C71.322 1.0696 76.2177 0.95345 80.9763 1.01934C85.7349 1.08523 90.2205 1.32586 93.5852 1.82666C96.95 2.32745 99.1279 3.06603 101.013 3.95452C102.898 4.843 104.444 5.85086 108.363 9.00553C112.283 12.1602 118.439 17.216 121.556 20.0478C124.935 23.1186 126.891 25.6602 127.008 28.2534C127.085 29.9523 126.119 38.3312 123.234 41.9357C122.901 42.3509 122.531 42.6998 117.93 45.2366C113.328 47.7734 104.754 52.359 98.9982 55.1214C93.2421 57.8837 90.3899 58.7953 81.9835 59.4254C73.5771 60.0556 60.0271 60.3941 49.126 59.9119C38.2248 59.4297 30.2044 58.2611 24.6273 57.1735C15.9663 55.4844 11.638 54.7033 9.81211 51.9786C7.87337 49.0855 4.94185 43.7152 2.6885 37.7362C1.54643 34.7059 1.01199 33.4654 1.00092 32.4234C0.987648 31.1738 1.09108 29.8949 2.97731 26.112C7.6345 16.7718 10.8761 10.425 11.4992 9.88105C12.266 9.21168 13.3813 8.44767 16.786 7.50553C19.4835 6.75906 24.0518 5.60224 30.8789 4.93528C37.7061 4.26832 46.5249 4.09644 50.9587 4.0105Z" fill="white"/>
<path d="M54.9518 4.09417C54.9044 4.09417 55.3926 3.92456 50.9587 4.0105C46.5249 4.09644 37.7061 4.26832 30.8789 4.93528C24.0518 5.60224 19.4835 6.75906 16.786 7.50553C13.3813 8.44767 12.266 9.21168 11.4992 9.88105C10.8761 10.425 7.6345 16.7718 2.97731 26.112C1.09108 29.8949 0.987648 31.1738 1.00092 32.4234C1.01199 33.4654 1.54643 34.7059 2.6885 37.7362C4.94185 43.7152 7.87337 49.0855 9.81211 51.9786C11.638 54.7033 15.9663 55.4844 24.6273 57.1735C30.2044 58.2611 38.2248 59.4297 49.126 59.9119C60.0271 60.3941 73.5771 60.0556 81.9835 59.4254C90.3899 58.7953 93.2421 57.8838 98.9982 55.1214C104.754 52.359 113.328 47.7734 117.93 45.2366C122.531 42.6998 122.901 42.3509 123.234 41.9357C126.119 38.3312 127.085 29.9523 127.008 28.2534C126.891 25.6602 124.935 23.1186 121.556 20.0478C118.439 17.216 112.283 12.1602 108.363 9.00553C104.444 5.85086 102.898 4.843 101.013 3.95452C99.128 3.06603 96.95 2.32745 93.5852 1.82666C90.2205 1.32586 85.7349 1.08523 80.9763 1.01934C76.2177 0.95345 71.322 1.0696 68.6236 1.16251C64.8883 1.29112 63.5976 1.65997 60.8448 2.71559C58.9227 3.45266 57.2178 3.88068 54.9518 4.09417ZM54.9518 4.09417C52.6984 4.16434 50.7241 4.28408 49.2429 4.48071C48.3414 4.59088 47.1359 4.72213 45.8939 4.85737" stroke="black" stroke-width="2" stroke-linecap="round" stroke-linejoin="round"/>
</g>
</svg>
