<svg preserveAspectRatio="none" width="100%" height="100%" overflow="visible" style="display: block;" viewBox="0 0 163.98 61.1402" fill="none" xmlns="http://www.w3.org/2000/svg">
<g id="Vector 232">
<path d="M65.2182 4.0105C70.9176 3.92456 70.29 4.09417 70.351 4.09417C73.2638 3.88068 75.4553 3.45266 77.926 2.71559C81.4645 1.65997 83.1236 1.29112 87.925 1.16251C91.3937 1.0696 97.6867 0.95345 103.804 1.01934C109.92 1.08523 115.686 1.32586 120.011 1.82666C124.337 2.32745 127.136 3.06603 129.559 3.95452C131.982 4.843 133.969 5.85086 139.007 9.00553C144.045 12.1602 151.959 17.216 155.966 20.0478C160.31 23.1186 162.823 25.6602 162.974 28.2534C163.073 29.9523 161.832 38.3312 158.122 41.9357C157.695 42.3509 157.22 42.6998 151.304 45.2366C145.389 47.7734 134.369 52.359 126.969 55.1214C119.57 57.8838 115.904 58.7953 105.098 59.4254C94.2924 60.0556 76.8749 60.3941 62.8623 59.9119C48.8497 59.4297 38.54 58.2611 31.3711 57.1735C20.2381 55.4844 14.6743 54.7033 12.3273 51.9786C9.83519 49.0855 6.06695 43.7152 3.17043 37.7362C1.70239 34.7059 1.0154 33.4654 1.00118 32.4234C0.984115 31.1738 1.11707 29.8949 3.54168 26.112C9.52814 16.7718 13.695 10.425 14.496 9.88106C15.4816 9.21168 16.9152 8.44767 21.2917 7.50553C24.7592 6.75906 30.6313 5.60224 39.4071 4.93528C48.1829 4.26833 59.5189 4.09644 65.2182 4.0105Z" fill="white"/>
<path d="M70.351 4.09417C70.29 4.09417 70.9176 3.92456 65.2182 4.0105C59.5189 4.09644 48.1829 4.26833 39.4071 4.93528C30.6313 5.60224 24.7592 6.75906 21.2917 7.50553C16.9152 8.44767 15.4816 9.21168 14.496 9.88106C13.695 10.425 9.52814 16.7718 3.54168 26.112C1.11707 29.8949 0.984115 31.1738 1.00118 32.4234C1.0154 33.4654 1.70239 34.7059 3.17043 37.7362C6.06695 43.7152 9.83519 49.0855 12.3273 51.9786C14.6743 54.7033 20.2381 55.4844 31.3711 57.1735C38.54 58.2611 48.8497 59.4297 62.8623 59.9119C76.8749 60.3941 94.2924 60.0556 105.098 59.4254C115.904 58.7953 119.57 57.8838 126.969 55.1214C134.369 52.359 145.389 47.7734 151.304 45.2366C157.22 42.6998 157.695 42.3509 158.122 41.9357C161.832 38.3312 163.073 29.9523 162.974 28.2534C162.823 25.6602 160.31 23.1186 155.966 20.0478C151.959 17.216 144.045 12.1602 139.007 9.00553C133.969 5.85086 131.982 4.843 129.559 3.95452C127.136 3.06603 124.337 2.32745 120.011 1.82666C115.686 1.32586 109.92 1.08523 103.804 1.01934C97.6867 0.95345 91.3937 1.0696 87.925 1.16251C83.1236 1.29112 81.4645 1.65997 77.926 2.71559C75.4553 3.45266 73.2638 3.88068 70.351 4.09417ZM70.351 4.09417C67.4544 4.16434 64.9167 4.28408 63.0126 4.48071C61.8538 4.59088 60.3043 4.72213 58.7078 4.85737" stroke="black" stroke-width="2" stroke-linecap="round" stroke-linejoin="round"/>
</g>
</svg>
