<svg preserveAspectRatio="none" width="100%" height="100%" overflow="visible" style="display: block;" viewBox="0 0 254.124 102.396" fill="none" xmlns="http://www.w3.org/2000/svg">
<g id="Frame 3">
<path id="Vector 126" d="M25.9873 2C25.9598 2 25.932 2.48354 25.8753 3.43972C25.8324 3.91236 25.7608 4.35943 23.7275 11.9131C21.6942 19.4667 17.7014 34.1133 13.5122 49.1647" stroke="var(--stroke-0, black)" stroke-width="4" stroke-linecap="round" stroke-linejoin="round"/>
<path id="Vector 127" d="M42.7516 10.4498C42.3711 10.4498 40.9757 10.7287 35.8794 14.5098C29.6453 19.1352 25.8275 23.083 24.3034 24.0249C21.8945 25.5136 19.9475 26.6327 19.5052 27.1629C19.2074 27.52 20.6479 27.5508 21.474 27.6452C22.3734 27.9284 27.1719 31.984 33.9743 38.1028C36.4575 40.3607 36.9736 40.8983 37.5964 41.5068" stroke="var(--stroke-0, black)" stroke-width="4" stroke-linecap="round" stroke-linejoin="round"/>
<path id="Vector 128" d="M35.8149 21.1229C36.2821 21.2207 42.797 24.6518 46.8857 27.1468C47.7975 27.7329 49.2816 28.8562 50.9362 30.1757C51.6006 30.6787 51.9091 30.8435 52.8146 30.4034" stroke="var(--stroke-0, black)" stroke-width="4" stroke-linecap="round" stroke-linejoin="round"/>
<path id="Vector 129" d="M66.2857 16.6269C65.7482 16.9559 63.7774 18.3678 60.8834 21.2932C59.0374 23.1591 56.1589 27.0461 52.5795 32.1732C49.0001 37.3004 44.9619 43.6916 42.5565 47.5982C40.1512 51.5048 39.5012 52.7332 38.9834 53.6659C38.4655 54.5986 38.0995 55.1984 37.2466 55.9672" stroke="var(--stroke-0, black)" stroke-width="4" stroke-linecap="round" stroke-linejoin="round"/>
<path id="Vector 130" d="M72.4003 5.09314C72.4003 5.11974 72.4003 7.0599 72.1384 11.9829C70.7356 23.4533 70.4878 24.6935 69.712 28.1752C69.0272 31.0986 67.7511 36.3704 66.2857 42.2362" stroke="var(--stroke-0, black)" stroke-width="4" stroke-linecap="round" stroke-linejoin="round"/>
<path id="Vector 131" d="M72.8647 6.85092C73.3319 6.78057 75.3884 6.41243 82.3182 6.25365C85.5048 6.18063 87.5153 8.66327 88.8966 10.5986C90.6679 13.0803 90.9242 18.7048 90.1281 21.7079C88.4299 28.1135 76.2091 28.9513 75.5319 29.0688C74.8713 28.9855 74.1802 28.8016 73.4222 28.6598C73.022 28.6063 72.5904 28.5904 71.3916 28.4011" stroke="var(--stroke-0, black)" stroke-width="4" stroke-linecap="round" stroke-linejoin="round"/>
<path id="Vector 132" d="M115.785 9.17432C115.366 9.17432 113.459 9.48753 109.425 11.4914C104.019 14.176 100.77 17.2113 100.096 17.8378C98.2469 19.5566 95.0933 26.8805 93.8478 30.4446C92.5589 34.133 95.604 40.234 95.9789 40.8906C96.3179 41.4844 100.721 42.2266 107.351 43.3606C113.24 43.5761 114.581 42.7234 116.379 41.4836C116.767 41.175 117.033 40.9433 117.39 40.494" stroke="var(--stroke-0, black)" stroke-width="4" stroke-linecap="round" stroke-linejoin="round"/>
<path id="Vector 133" d="M133.499 25.5204C133.499 25.5817 133.473 26.4834 133.155 29.0059C132.309 33.0673 131.632 37.4841 131.403 40.6283C131.278 41.8376 131.137 42.2625 130.96 42.7884" stroke="var(--stroke-0, black)" stroke-width="4" stroke-linecap="round" stroke-linejoin="round"/>
<path id="Vector 134" d="M134.498 26.0451C138.979 26.0451 148.424 26.1455 149.066 26.5264C152.524 28.5777 145.915 36.8129 145.312 38.4647C145.209 38.8752 145.147 39.2751 145.115 39.7336C145.083 40.1921 145.083 40.697 144.869 41.887" stroke="var(--stroke-0, black)" stroke-width="4" stroke-linecap="round" stroke-linejoin="round"/>
<path id="Vector 135" d="M153.839 40.9746C154.398 41.6558 156.222 43.3481 158.66 44.0703C162.781 45.2911 164.811 43.345 169.229 40.5314C171.556 39.0491 173.91 33.3709 174.178 30.3881C174.326 28.7413 170.023 28.3712 165.923 27.3391C159.87 25.8154 157.054 28.4464 155.21 29.6359C152.783 31.2007 151.971 35.4262 151.959 36.2217C152.232 36.9881 152.585 37.845 152.838 38.7596C152.953 39.2015 153.041 39.5983 153.921 40.8801" stroke="var(--stroke-0, black)" stroke-width="4" stroke-linecap="round" stroke-linejoin="round"/>
<path id="Vector 136" d="M2.00001 100.396C2.02133 99.3481 2.25183 96.3255 4.05009 90.321C4.43013 89.052 4.91831 88.8344 9.85094 88.6266C14.7836 88.4189 24.2657 88.2696 29.6903 88.2133C38.3088 88.1238 41.1842 87.6746 42.4201 87.8943C42.8624 87.973 42.7262 88.5535 42.4758 89.0438C42.2254 89.534 41.813 90.0619 40.8101 91.801C39.8073 93.5402 38.2264 96.4747 36.0902 100.086" stroke="var(--stroke-0, black)" stroke-width="4" stroke-linecap="round" stroke-linejoin="round"/>
<path id="Vector 137" d="M11.7798 87.4383C11.8344 86.7098 14.6915 79.1206 19.1697 69.137C21.4111 64.1401 22.9563 62.0766 24.1468 60.8891C24.508 60.5289 24.7088 62.2404 25.7809 66.9798C26.8332 70.9755 28.9175 78.2008 30.0679 82.1265C31.2183 86.0522 31.3717 86.4593 31.9159 88.0166" stroke="var(--stroke-0, black)" stroke-width="4" stroke-linecap="round" stroke-linejoin="round"/>
<path id="Vector 138" d="M48.7992 83.4766C48.833 85.0554 49.4934 91.5916 50.7032 94.7969C51.6195 97.2247 54.3358 98.0317 55.4972 98.5061C56.6539 98.9786 57.8425 98.5779 58.8082 98.1116C59.9575 97.5567 61.2995 95.7535 63.3519 92.7626C66.181 88.6398 67.7484 84.0847 68.5709 80.3993C70.5519 71.5222 66.36 65.0935 65.4955 64.7118C61.51 62.9525 54.8457 64.6463 53.1082 65.826C50.0004 67.9362 48.2517 72.2559 47.4935 74.4091C47.4188 76.0481 47.5556 78.0148 47.8065 80.2923C47.9206 81.5926 48.008 83.1865 48.3091 85.6213" stroke="var(--stroke-0, black)" stroke-width="4" stroke-linecap="round" stroke-linejoin="round"/>
<path id="Vector 139" d="M75.7541 64.5492C75.7541 64.7244 75.7541 64.8997 75.7541 70.0309C75.7541 75.162 75.7541 85.2438 75.732 90.699C75.7099 96.1542 75.6657 96.6774 75.6201 97.2164" stroke="var(--stroke-0, black)" stroke-width="4" stroke-linecap="round" stroke-linejoin="round"/>
<path id="Vector 140" d="M77.0415 68.0948C82.1871 68.0704 93.6657 68.1986 96.1068 68.7566C97.0625 68.9751 97.8831 69.2096 98.5128 70.1723C98.7525 72.6831 98.7079 74.9154 97.9734 78.7042C97.3034 81.9522 96.0299 87.8909 94.5979 94.3846" stroke="var(--stroke-0, black)" stroke-width="4" stroke-linecap="round" stroke-linejoin="round"/>
<path id="Vector 141" d="M104.989 69.1443V92.5944" stroke="var(--stroke-0, black)" stroke-width="4" stroke-linecap="round" stroke-linejoin="round"/>
<path id="Vector 142" d="M106.179 69.4627C106.243 69.3035 106.64 68.9953 108.369 68.294C112.091 67.1018 116.905 66.0697 121.089 65.6022C122.888 65.4279 124.028 65.3816 125.658 65.2268" stroke="var(--stroke-0, black)" stroke-width="4" stroke-linecap="round" stroke-linejoin="round"/>
<path id="Vector 143" d="M106.351 83.349C106.351 83.3177 109.804 83.0011 115.253 82.5192C117.249 82.3378 117.682 82.2848 118.614 82.233C119.545 82.1812 120.962 82.1323 122.331 82.1261" stroke="var(--stroke-0, black)" stroke-width="4" stroke-linecap="round" stroke-linejoin="round"/>
<path id="Vector 144" d="M104.767 93.9434C104.777 93.9434 104.787 93.9434 107.525 93.9322C110.263 93.921 115.729 93.8986 118.863 93.8294C121.997 93.7601 122.633 93.6447 124.06 93.5258" stroke="var(--stroke-0, black)" stroke-width="4" stroke-linecap="round" stroke-linejoin="round"/>
<path id="Vector 145" d="M130.658 66.7191C130.927 69.0565 132.328 76.5901 133.7 79.0877C134.773 81.0415 140.179 78.4418 145.018 76.1311C147.745 74.8293 146.429 69.8406 146.532 70.1608C146.523 72.8882 146.75 79.0977 147.166 86.2188C147.321 89.159 147.36 90.7315 147.401 92.3517" stroke="var(--stroke-0, black)" stroke-width="4" stroke-linecap="round" stroke-linejoin="round"/>
<path id="Vector 146" d="M159.214 58.1166C159.214 58.177 159.214 58.7962 158.437 64.0428C157.745 68.7147 156.106 77.4123 155.261 82.102C154.328 87.1964 154.152 88.0989 154.002 89.2633C153.937 89.9421 153.895 90.7991 153.853 91.474" stroke="var(--stroke-0, black)" stroke-width="4" stroke-linecap="round" stroke-linejoin="round"/>
<path id="Vector 147" d="M161.127 61.2699C161.127 61.3614 162.04 62.7976 164.767 66.7248C166.581 69.263 169.27 72.9084 171.202 75.8043C173.134 78.7002 174.228 80.7361 175.38 83.152" stroke="var(--stroke-0, black)" stroke-width="4" stroke-linecap="round" stroke-linejoin="round"/>
<path id="Vector 148" d="M156.467 76.7289C156.483 76.7289 156.498 76.7289 158.724 76.7289C160.95 76.7289 165.385 76.7289 170.979 76.4137" stroke="var(--stroke-0, black)" stroke-width="4" stroke-linecap="round" stroke-linejoin="round"/>
<path id="Vector 149" d="M190.064 56.6747C190.064 56.6903 190.064 56.7059 190.064 60.3641C190.064 64.0222 190.064 71.3223 190.018 75.8082C189.972 80.294 189.879 81.7444 189.784 83.2387" stroke="var(--stroke-0, black)" stroke-width="4" stroke-linecap="round" stroke-linejoin="round"/>
<path id="Vector 150" d="M179.895 59.2717C179.989 59.2717 183.742 59.2202 189.638 59.0926C192.392 58.917 195.203 58.7653 198.876 58.6681C200.318 58.6203 200.904 58.5756 201.508 58.5295" stroke="var(--stroke-0, black)" stroke-width="4" stroke-linecap="round" stroke-linejoin="round"/>
<path id="Vector 151" d="M209.627 55.7812C209.627 55.9404 209.465 61.0567 209.179 68.9776C208.889 74.7649 208.845 79.3561 208.752 81.2745C208.703 82.0754 208.649 82.5257 208.593 82.9897" stroke="var(--stroke-0, black)" stroke-width="4" stroke-linecap="round" stroke-linejoin="round"/>
<path id="Vector 152" d="M223.689 52.1757C223.323 52.4658 219.978 55.7255 214.03 63.05C211.396 66.293 210.502 67.5251 210.267 68.241C209.763 69.7805 215.245 72.5542 219.316 75.5149C219.961 75.9997 220.342 76.3782 220.762 76.8161C221.182 77.254 221.63 77.7397 222.742 78.9004" stroke="var(--stroke-0, black)" stroke-width="4" stroke-linecap="round" stroke-linejoin="round"/>
<path id="Vector 153" d="M232.333 54.7443C232.333 54.775 232.333 54.8057 232.333 59.0433C232.333 63.281 232.333 71.7247 232.377 80.0192" stroke="var(--stroke-0, black)" stroke-width="4" stroke-linecap="round" stroke-linejoin="round"/>
<path id="Vector 154" d="M233.127 57.4059C233.127 57.3747 233.538 57.3431 235.082 57.1621C236.214 56.9968 238.054 56.6822 239.901 56.4631C241.749 56.2441 243.547 56.1302 245.478 56.8686" stroke="var(--stroke-0, black)" stroke-width="4" stroke-linecap="round" stroke-linejoin="round"/>
<path id="Vector 155" d="M232.098 82.4823C236.232 81.5993 246.613 79.1086 249.299 78.7091C249.82 78.669 250.348 78.5889 250.823 78.5334C251.297 78.4778 251.703 78.4492 252.124 78.5805" stroke="var(--stroke-0, black)" stroke-width="4" stroke-linecap="round" stroke-linejoin="round"/>
<path id="Vector 156" d="M234.671 73.106C234.702 73.106 235.181 73.0566 236.293 72.8674C236.941 72.7275 237.759 72.4987 238.832 72.2815C239.905 72.0643 241.209 71.8657 243.452 71.4656" stroke="var(--stroke-0, black)" stroke-width="4" stroke-linecap="round" stroke-linejoin="round"/>
</g>
</svg>
