<svg viewBox="0 0 293 287" fill="none" xmlns="http://www.w3.org/2000/svg">
<path id="Vector 230" d="M121.04 93.1895C121.013 93.1895 120.986 93.1895 121.006 100.701C121.025 108.212 121.093 123.234 121.205 131.513C121.332 140.877 121.658 154.624 121.802 158.877C122.087 167.256 122.134 120.707 122.408 105.744C122.682 90.781 123.012 91.5439 124.151 107.817C125.29 124.089 127.229 155.849 128.155 171.673C129.081 187.497 128.935 186.424 129.29 172.632C129.645 158.841 130.506 132.363 130.901 116.854C131.296 101.345 131.2 97.6053 131.151 96.1836C131.102 94.7618 131.102 95.7708 132.585 109.247C134.069 122.723 137.037 148.635 138.569 163.519C140.803 185.228 139.482 187.546 138.867 188.51C138.684 188.796 138.157 187.76 137.841 171.744C137.525 155.728 137.281 124.529 137.155 117.171C137.029 109.813 137.029 127.241 137.029 145.197" stroke="black" stroke-width="2" stroke-linecap="round" stroke-linejoin="round"/>
<path id="Vector 231" d="M167.239 100.444C167.239 100.495 167.239 100.546 167.266 109.949C167.293 119.353 167.346 138.108 167.497 152.546C167.749 176.539 168.461 185.22 169.027 182.725C169.328 181.397 169.479 179.908 170.372 167.141C171.265 154.374 172.849 130.365 173.617 116.499C174.384 102.634 174.287 99.6392 174.837 110.281C175.386 120.923 176.584 145.292 177.463 159.475C178.342 173.659 178.865 176.917 180.041 170.052C181.218 163.187 183.033 146.101 183.967 135.579C185.206 121.642 183.833 113.492 182.161 106.051C181.303 102.228 181.278 97.9484 181.279 93.4277C181.279 92.1283 181.568 92.8564 182.055 109.262C182.541 125.667 183.291 157.73 183.257 172.838C183.223 187.946 182.383 185.129 179.919 171.01C177.455 156.892 173.394 131.558 171.302 116.446C169.21 101.333 169.21 97.2101 169.38 109.866C169.551 122.522 169.892 152.082 170.177 168.017C170.487 185.37 171.101 187.565 171.564 188.183C171.832 188.059 172.166 187.048 173.004 174.281C173.843 161.515 175.174 137.024 176.547 111.791" stroke="black" stroke-width="2" stroke-linecap="round" stroke-linejoin="round"/>
</svg>
