<svg viewBox="0 0 293 287" fill="none" xmlns="http://www.w3.org/2000/svg">
<path id="Vector 228" d="M116.636 102.813C116.636 102.877 116.636 102.941 116.636 115.508C116.636 128.074 116.636 153.142 116.67 166.347C116.705 180.137 117.077 181.482 117.562 182.873C118.856 186.588 122.012 189.972 123.626 190.816C125.311 191.697 126.881 189.195 131.093 187.978C134.711 186.932 141.384 185.37 146.1 183.888C150.816 182.405 153.385 181.139 159.349 176.778C165.314 172.416 174.597 164.999 181.062 159.983C187.527 154.966 190.892 152.576 193.797 150.105C199.195 145.511 201.778 142.014 202.32 140.85C202.792 139.836 202.661 138.464 202.408 137.229C201.942 134.952 196.316 131.736 192.099 129.035C191.502 128.653 191.063 128.326 187.289 126.046C183.514 123.766 176.415 119.547 172.427 117.107C168.44 114.667 167.779 114.134 164.717 112.28C161.655 110.427 156.212 107.27 149.893 104.34C143.574 101.41 136.543 98.803 132.193 97.1207C126.39 94.7598 123.581 93.775 121.402 93.2576C120.534 93.0259 120.151 92.8568 119.306 92" stroke="black" stroke-width="2" stroke-linecap="round" stroke-linejoin="round"/>
<path id="Vector 229" d="M123.466 108.852C123.49 108.827 123.514 110.054 123.672 111.758C123.826 113.426 126.805 107.914 128.705 106.245C129.39 105.643 130.195 105.514 130.911 105.433C131.254 105.394 131.566 105.478 131.733 105.766C132.637 107.331 130.57 109.436 128.449 114.42C126.756 118.4 124.587 125.634 124.015 128.488C123.443 131.342 124.731 129.676 128.481 126.138C132.231 122.6 138.404 117.24 141.763 114.366C145.122 111.493 145.481 111.269 145.754 111.277C146.027 111.285 146.203 111.533 144.148 115.622C142.093 119.71 137.801 127.632 134.796 133.704C131.79 139.775 130.201 143.755 128.82 146.935C127.439 150.115 126.316 152.373 125.056 155.547C123.796 158.722 122.434 162.744 122.217 164.083C122.001 165.421 122.972 163.953 128.011 156.774C133.051 149.595 142.13 136.749 148.321 128.505C154.513 120.26 157.542 117.007 158.935 115.688C160.327 114.369 159.991 115.081 158.889 116.857C157.786 118.632 155.927 121.448 151.925 130.1C147.923 138.752 141.835 153.154 137.977 162.927C134.119 172.699 132.676 177.405 132.168 179.368C131.659 181.331 132.129 180.41 137.512 171.453C142.896 162.496 153.179 145.532 158.901 136.265C165.329 125.853 166.614 124.554 167.071 124.256C167.23 124.153 167.364 124.573 164.944 131.366C162.524 138.159 157.579 151.421 155.003 158.495C152.428 165.569 152.373 166.052 152.254 166.789C152.135 167.527 151.955 168.505 155.788 162.894C159.622 157.284 167.476 145.055 171.625 138.586C175.988 131.784 176.426 131.218 176.812 131.077C177.96 130.658 176.31 133.869 174.85 138.679C173.632 142.695 171.972 150.059 171.193 153.718C170.415 157.376 170.703 157.144 171.093 156.533C172.071 155.004 173.201 152.846 176.67 148.461C179.327 145.101 184.101 139.676 186.605 136.984C189.109 134.291 189.273 134.556 189.358 134.942C189.931 137.556 187.879 142.573 187.525 146.158C187.41 147.321 187.864 147.174 188.647 146.072C190.638 142.921 192.224 140.336 192.999 139.484C193.435 139.107 193.958 138.844 194.496 138.573" stroke="black" stroke-width="2" stroke-linecap="round" stroke-linejoin="round"/>
</svg>
