<svg preserveAspectRatio="none" width="100%" height="100%" overflow="visible" style="display: block;" viewBox="0 0 381.758 246.803" fill="none" xmlns="http://www.w3.org/2000/svg">
<path id="Vector 158" d="M64.3908 6.81852C64.3908 6.92119 64.3908 7.02386 64.3908 47.6862C64.3908 88.3485 64.3908 169.567 64.3908 209.823C64.3908 250.078 64.3908 246.909 65.1711 243.348C66.8361 235.749 71.4028 229.358 76.5916 224.633C79.2545 222.208 82.9578 220.928 106.949 219.59C130.94 218.252 175.357 217.201 222.895 221.777C270.434 226.352 319.749 236.585 346.288 240.707C372.827 244.828 375.096 242.529 375.981 224.201C376.865 205.873 376.297 171.586 377.62 131.222C380.433 45.3809 382.477 -0.450103 375.713 1.56356C371.966 2.67885 367.614 4.08717 309.612 4.93978C251.61 5.79239 140.099 6.07304 78.9318 5.75729C17.7647 5.44154 10.3208 4.52089 1.50013 3.56198" stroke="var(--stroke-0, black)" stroke-width="3" stroke-linecap="round" stroke-linejoin="round"/>
</svg>
