<svg preserveAspectRatio="none" width="100%" height="100%" overflow="visible" style="display: block;" viewBox="0 0 269.602 265.918" fill="none" xmlns="http://www.w3.org/2000/svg">
<path id="Vector 157" d="M21.3711 9.89026C21.3711 10.0956 21.3711 10.301 21.3711 47.7443C21.3711 85.1876 21.3711 159.863 20.9775 199.817C20.5545 242.756 18.7291 248.986 19.7177 253.866C23.8738 274.385 85.3208 258.168 132.879 260.876C209.691 265.25 259.439 256.62 263.825 254.183C274.613 248.19 261.555 212.168 261.858 140.755C262.098 84.0327 270.575 50.7177 264.864 48.033C259.681 45.5968 228.772 34.415 169.263 17.6308C138.339 10.4739 105.942 6.07948 77.5272 3.80711C49.1123 1.53474 25.6615 1.51763 1.5 1.5" stroke="var(--stroke-0, black)" stroke-width="3" stroke-linecap="round" stroke-linejoin="round"/>
</svg>
