<svg preserveAspectRatio="none" width="100%" height="100%" overflow="visible" style="display: block;" viewBox="0 0 395.584 276.859" fill="none" xmlns="http://www.w3.org/2000/svg">
<path id="Vector 159" d="M20.3651 40.7237C20.3651 40.8229 20.3651 40.9222 19.5335 80.5748C18.7018 120.227 17.0385 199.43 17.2854 239.089C17.5323 278.747 19.7398 276.461 22.352 274.429C24.9643 272.398 27.9145 270.69 56.4907 266.222C85.0669 261.754 139.18 254.577 195.906 250.573C252.632 246.57 310.331 245.957 340.194 233.811C383.547 216.179 372.088 164.023 374.383 148.153C375.663 139.301 385.104 106.425 393.751 60.9167C396.628 45.7773 380.96 45.8172 342.834 39.6627C304.708 33.5082 240.643 20.91 179.763 13.3129C118.884 5.71578 63.1316 3.50144 1.50002 1.50002" stroke="var(--stroke-0, black)" stroke-width="3" stroke-linecap="round" stroke-linejoin="round"/>
</svg>
