<svg preserveAspectRatio="none" width="100%" height="100%" overflow="visible" style="display: block;" viewBox="0 0 34.3892 33.827" fill="none" xmlns="http://www.w3.org/2000/svg">
<g id="&#208;&#161;&#208;&#188;&#208;&#176;&#208;&#185;&#208;&#187;&#208;&#184;&#208;&#186;">
<path d="M1.27273 16.7939C1.27273 8.17487 8.25987 1.18774 16.8789 1.18774H17.5947C26.2138 1.18774 33.2009 8.17487 33.2009 16.7939V16.7939C33.2009 25.413 26.2138 32.4001 17.5947 32.4001H16.8789C8.25988 32.4001 1.27273 25.413 1.27273 16.7939V16.7939Z" fill="var(--fill-0, white)"/>
<path d="M20.9087 1.51443L21.3475 0.615836L20.9087 1.51443ZM21.6496 1.87621L21.2108 2.7748L21.6496 1.87621ZM22.3905 2.238L21.9517 3.13659L22.3905 2.238ZM23.915 2.84536L23.6159 3.7996L23.915 2.84536ZM25.482 3.3365L25.183 4.29074L25.482 3.3365ZM26.9451 4.06207L26.3681 4.87883L26.9451 4.06207ZM29.4115 6.21535L30.269 5.7008L29.4115 6.21535ZM29.8396 6.92866L28.9821 7.44321L29.8396 6.92866ZM30.2676 7.64196L31.1251 7.12741L30.2676 7.64196ZM31.0577 9.08181L31.9527 8.63579L31.0577 9.08181ZM31.7818 10.5349L30.8868 10.9809L31.7818 10.5349ZM32.4552 12.0297L33.382 11.6541L32.4552 12.0297ZM32.7666 12.798L31.8398 13.1736L32.7666 12.798ZM33.0779 13.5663L34.0047 13.1907L33.0779 13.5663ZM33.3892 15.1645L32.3892 15.1644L33.3892 15.1645ZM33.389 16.8243L34.389 16.8244L33.389 16.8243ZM33.0918 18.4236L32.1589 18.0632L33.0918 18.4236ZM32.4974 19.9623L31.5646 19.6019L32.4974 19.9623ZM32.1312 21.5768L31.1345 21.4955L32.1312 21.5768ZM32.0623 22.4221L33.059 22.5034L32.0623 22.4221ZM31.9933 23.2673L32.99 23.3486L31.9933 23.2673ZM31.4063 24.7662L32.19 25.3874L31.4063 24.7662ZM30.8882 25.4199L30.1045 24.7988L30.8882 25.4199ZM30.3701 26.0736L29.5864 25.4524L30.3701 26.0736ZM26.98 29.6515L27.3364 30.5858L26.98 29.6515ZM25.4052 30.2522L25.0488 29.3179L25.4052 30.2522ZM23.879 30.8884L24.2929 31.7988L23.879 30.8884ZM22.4015 31.5602L22.8154 32.4705L22.4015 31.5602ZM20.8602 32.0712L20.647 31.0942L20.8602 32.0712ZM19.255 32.4215L19.0418 31.4445L19.255 32.4215ZM17.6195 32.6698L17.5319 31.6737L17.6195 32.6698ZM15.9537 32.8162L15.8661 31.8201L15.9537 32.8162ZM14.3765 32.4651L13.8812 33.3337L14.3765 32.4651ZM12.8881 31.6163L13.3835 30.7476L12.8881 31.6163ZM11.294 31.0904L11.1755 32.0834L11.294 31.0904ZM9.59433 30.8875L9.7129 29.8945L9.59433 30.8875ZM8.15659 30.1853L7.44194 30.8848L8.15659 30.1853ZM6.98081 28.9841L7.69546 28.2846L6.98081 28.9841ZM5.78471 27.8235L6.46205 27.0878L5.78471 27.8235ZM5.17649 27.2635L4.49915 27.9991L5.17649 27.2635ZM4.56828 26.7035L3.89094 27.4391L4.56828 26.7035ZM3.73684 25.338L4.70052 25.0709L3.73684 25.338ZM3.29039 23.7271L2.32671 23.9941L3.29039 23.7271ZM2.55843 22.2286L1.75234 22.8204L2.55843 22.2286ZM1.54095 20.8427L0.734857 21.4345L1.54095 20.8427ZM1.00086 17.6306L0.000936866 17.643L1.00086 17.6306ZM1.34014 14.3387L0.350155 14.1975L1.34014 14.3387ZM1.68771 12.7296L0.727743 12.4495L1.68771 12.7296ZM4.06273 8.52717L4.7985 9.2044L4.06273 8.52717ZM5.49765 6.5451L4.65414 6.00798L5.49765 6.5451ZM5.93477 5.85863L6.77828 6.39574L5.93477 5.85863ZM16.4479 1.10308L16.3354 2.09673L16.4479 1.10308ZM18.5234 1.17019L18.5341 2.17013L19.3563 2.16136L19.3456 1.16141L19.3349 0.16147L18.5127 0.170246L18.5234 1.17019ZM19.3456 1.16141L19.3563 2.16136C19.7483 2.15717 20.1155 2.23994 20.4699 2.41302L20.9087 1.51443L21.3475 0.615836C20.7141 0.306528 20.0392 0.153952 19.3349 0.16147L19.3456 1.16141ZM20.9087 1.51443L20.4699 2.41302L21.2108 2.7748L21.6496 1.87621L22.0884 0.977625L21.3475 0.615836L20.9087 1.51443ZM21.6496 1.87621L21.2108 2.7748L21.9517 3.13659L22.3905 2.238L22.8293 1.33941L22.0884 0.977625L21.6496 1.87621ZM22.3905 2.238L21.9517 3.13659C22.4906 3.39972 23.0454 3.62081 23.6159 3.7996L23.915 2.84536L24.214 1.89113C23.7398 1.74249 23.2783 1.55867 22.8293 1.33941L22.3905 2.238ZM23.915 2.84536L23.6159 3.7996L24.3994 4.04517L24.6985 3.09093L24.9976 2.1367L24.214 1.89113L23.915 2.84536ZM24.6985 3.09093L24.3994 4.04517L25.183 4.29074L25.482 3.3365L25.7811 2.38227L24.9976 2.1367L24.6985 3.09093ZM25.482 3.3365L25.183 4.29074C25.6048 4.42294 25.9989 4.61803 26.3681 4.87883L26.9451 4.06207L27.522 3.24531C26.9853 2.86612 26.404 2.5775 25.7811 2.38227L25.482 3.3365ZM26.9451 4.06207L26.3681 4.87883L27.0475 5.35882L27.6245 4.54206L28.2015 3.7253L27.522 3.24531L26.9451 4.06207ZM27.6245 4.54206L27.0475 5.35882L27.727 5.83881L28.304 5.02205L28.881 4.20529L28.2015 3.7253L27.6245 4.54206ZM28.304 5.02205L27.727 5.83881C28.0665 6.07865 28.3402 6.3735 28.5541 6.72991L29.4115 6.21535L30.269 5.7008C29.9121 5.10613 29.4474 4.60544 28.881 4.20529L28.304 5.02205ZM29.4115 6.21535L28.5541 6.72991L28.9821 7.44321L29.8396 6.92866L30.697 6.4141L30.269 5.7008L29.4115 6.21535ZM29.8396 6.92866L28.9821 7.44321L29.4102 8.15652L30.2676 7.64196L31.1251 7.12741L30.697 6.4141L29.8396 6.92866ZM30.2676 7.64196L29.4102 8.15652C29.6824 8.61026 29.9332 9.06736 30.1627 9.52783L31.0577 9.08181L31.9527 8.63579C31.6995 8.12754 31.4235 7.62474 31.1251 7.12741L30.2676 7.64196ZM31.0577 9.08181L30.1627 9.52783L30.5248 10.2544L31.4198 9.80834L32.3148 9.36233L31.9527 8.63579L31.0577 9.08181ZM31.4198 9.80834L30.5248 10.2544L30.8868 10.9809L31.7818 10.5349L32.6769 10.0889L32.3148 9.36233L31.4198 9.80834ZM31.7818 10.5349L30.8868 10.9809C31.1164 11.4417 31.3303 11.9165 31.5284 12.4053L32.4552 12.0297L33.382 11.6541C33.165 11.1186 32.93 10.5968 32.6769 10.0889L31.7818 10.5349ZM32.4552 12.0297L31.5284 12.4053L31.8398 13.1736L32.7666 12.798L33.6934 12.4224L33.382 11.6541L32.4552 12.0297ZM32.7666 12.798L31.8398 13.1736L32.1511 13.9419L33.0779 13.5663L34.0047 13.1907L33.6934 12.4224L32.7666 12.798ZM33.0779 13.5663L32.1511 13.9419C32.3102 14.3346 32.3892 14.7397 32.3892 15.1644L33.3892 15.1645L34.3892 15.1646C34.3892 14.4827 34.2606 13.8224 34.0047 13.1907L33.0779 13.5663ZM33.3892 15.1645L32.3892 15.1644L32.3891 15.9943L33.3891 15.9944L34.3891 15.9945L34.3892 15.1646L33.3892 15.1645ZM33.3891 15.9944L32.3891 15.9943L32.389 16.8242L33.389 16.8243L34.389 16.8244L34.3891 15.9945L33.3891 15.9944ZM33.389 16.8243L32.389 16.8242C32.389 17.2551 32.3124 17.666 32.1589 18.0632L33.0918 18.4236L34.0246 18.7839C34.2674 18.1553 34.389 17.5001 34.389 16.8244L33.389 16.8243ZM33.0918 18.4236L32.1589 18.0632L31.8618 18.8326L32.7946 19.1929L33.7274 19.5532L34.0246 18.7839L33.0918 18.4236ZM32.7946 19.1929L31.8618 18.8326L31.5646 19.6019L32.4974 19.9623L33.4302 20.3226L33.7274 19.5532L32.7946 19.1929ZM32.4974 19.9623L31.5646 19.6019C31.3309 20.2068 31.1881 20.8392 31.1345 21.4955L32.1312 21.5768L33.1279 21.6582C33.1663 21.1875 33.2676 20.7435 33.4302 20.3226L32.4974 19.9623ZM32.1312 21.5768L31.1345 21.4955L31.0656 22.3408L32.0623 22.4221L33.059 22.5034L33.1279 21.6582L32.1312 21.5768ZM32.0623 22.4221L31.0656 22.3408L30.9966 23.186L31.9933 23.2673L32.99 23.3486L33.059 22.5034L32.0623 22.4221ZM31.9933 23.2673L30.9966 23.186C30.9664 23.556 30.843 23.867 30.6226 24.1451L31.4063 24.7662L32.19 25.3874C32.6603 24.7939 32.9282 24.1057 32.99 23.3486L31.9933 23.2673ZM31.4063 24.7662L30.6226 24.1451L30.1045 24.7988L30.8882 25.4199L31.6719 26.041L32.19 25.3874L31.4063 24.7662ZM30.8882 25.4199L30.1045 24.7988L29.5864 25.4524L30.3701 26.0736L31.1538 26.6947L31.6719 26.041L30.8882 25.4199ZM30.3701 26.0736L29.5864 25.4524C29.2412 25.8879 28.8951 26.3241 28.5479 26.7611L29.3308 27.3832L30.1138 28.0053C30.4615 27.5677 30.8082 27.1308 31.1538 26.6947L30.3701 26.0736ZM29.3308 27.3832L28.5479 26.7611L28.0267 27.4171L28.8097 28.0392L29.5926 28.6612L30.1138 28.0053L29.3308 27.3832ZM28.8097 28.0392L28.0267 27.4171L27.5055 28.0731L28.2885 28.6952L29.0715 29.3172L29.5926 28.6612L28.8097 28.0392ZM28.2885 28.6952L27.5055 28.0731C27.2704 28.3691 26.9819 28.5805 26.6235 28.7172L26.98 29.6515L27.3364 30.5858C28.0279 30.322 28.6117 29.8959 29.0715 29.3172L28.2885 28.6952ZM26.98 29.6515L26.6235 28.7172L25.8361 29.0175L26.1926 29.9518L26.549 30.8862L27.3364 30.5858L26.98 29.6515ZM26.1926 29.9518L25.8361 29.0175L25.0488 29.3179L25.4052 30.2522L25.7616 31.1865L26.549 30.8862L26.1926 29.9518ZM25.4052 30.2522L25.0488 29.3179C24.5052 29.5252 23.9773 29.7453 23.4652 29.9781L23.879 30.8884L24.2929 31.7988C24.7658 31.5838 25.2553 31.3797 25.7616 31.1865L25.4052 30.2522ZM23.879 30.8884L23.4652 29.9781L22.7264 30.314L23.1403 31.2243L23.5542 32.1346L24.2929 31.7988L23.879 30.8884ZM23.1403 31.2243L22.7264 30.314L21.9877 30.6499L22.4015 31.5602L22.8154 32.4705L23.5542 32.1346L23.1403 31.2243ZM22.4015 31.5602L21.9877 30.6499C21.5603 30.8442 21.1139 30.9923 20.647 31.0942L20.8602 32.0712L21.0734 33.0482C21.6767 32.9166 22.2578 32.7241 22.8154 32.4705L22.4015 31.5602ZM20.8602 32.0712L20.647 31.0942L19.8444 31.2693L20.0576 32.2464L20.2708 33.2234L21.0734 33.0482L20.8602 32.0712ZM20.0576 32.2464L19.8444 31.2693L19.0418 31.4445L19.255 32.4215L19.4682 33.3985L20.2708 33.2234L20.0576 32.2464ZM19.255 32.4215L19.0418 31.4445C18.5489 31.552 18.0457 31.6285 17.5319 31.6737L17.6195 32.6698L17.707 33.666C18.3038 33.6136 18.8909 33.5245 19.4682 33.3985L19.255 32.4215ZM17.6195 32.6698L17.5319 31.6737L16.699 31.7469L16.7866 32.743L16.8741 33.7392L17.707 33.666L17.6195 32.6698ZM16.7866 32.743L16.699 31.7469L15.8661 31.8201L15.9537 32.8162L16.0412 33.8124L16.8741 33.7392L16.7866 32.743ZM15.9537 32.8162L15.8661 31.8201C15.5189 31.8506 15.1959 31.7811 14.8719 31.5964L14.3765 32.4651L13.8812 33.3337C14.5495 33.7148 15.2779 33.8795 16.0412 33.8124L15.9537 32.8162ZM14.3765 32.4651L14.8719 31.5964L14.1277 31.172L13.6323 32.0407L13.137 32.9094L13.8812 33.3337L14.3765 32.4651ZM13.6323 32.0407L14.1277 31.172L13.3835 30.7476L12.8881 31.6163L12.3928 32.485L13.137 32.9094L13.6323 32.0407ZM12.8881 31.6163L13.3835 30.7476C12.7714 30.3986 12.112 30.181 11.4126 30.0975L11.294 31.0904L11.1755 32.0834C11.6093 32.1352 12.0125 32.2682 12.3928 32.485L12.8881 31.6163ZM11.294 31.0904L11.4126 30.0975L10.5628 29.996L10.4442 30.9889L10.3256 31.9819L11.1755 32.0834L11.294 31.0904ZM10.4442 30.9889L10.5628 29.996L9.7129 29.8945L9.59433 30.8875L9.47576 31.8804L10.3256 31.9819L10.4442 30.9889ZM9.59433 30.8875L9.7129 29.8945C9.36814 29.8533 9.10057 29.7202 8.87123 29.4859L8.15659 30.1853L7.44194 30.8848C7.99646 31.4514 8.68738 31.7863 9.47576 31.8804L9.59433 30.8875ZM8.15659 30.1853L8.87123 29.4859L8.28335 28.8852L7.5687 29.5847L6.85405 30.2842L7.44194 30.8848L8.15659 30.1853ZM7.5687 29.5847L8.28335 28.8852L7.69546 28.2846L6.98081 28.9841L6.26616 29.6836L6.85405 30.2842L7.5687 29.5847ZM6.98081 28.9841L7.69546 28.2846C7.29161 27.872 6.88048 27.473 6.46205 27.0878L5.78471 27.8235L5.10737 28.5591C5.49989 28.9205 5.88616 29.2953 6.26616 29.6836L6.98081 28.9841ZM5.78471 27.8235L6.46205 27.0878L5.85383 26.5278L5.17649 27.2635L4.49915 27.9991L5.10737 28.5591L5.78471 27.8235ZM5.17649 27.2635L5.85383 26.5278L5.24562 25.9678L4.56828 26.7035L3.89094 27.4391L4.49915 27.9991L5.17649 27.2635ZM4.56828 26.7035L5.24562 25.9678C4.97903 25.7224 4.80007 25.4301 4.70052 25.0709L3.73684 25.338L2.77316 25.6051C2.97124 26.3198 3.34657 26.9379 3.89094 27.4391L4.56828 26.7035ZM3.73684 25.338L4.70052 25.0709L4.47729 24.2655L3.51362 24.5325L2.54994 24.7996L2.77316 25.6051L3.73684 25.338ZM3.51362 24.5325L4.47729 24.2655L4.25407 23.46L3.29039 23.7271L2.32671 23.9941L2.54994 24.7996L3.51362 24.5325ZM3.29039 23.7271L4.25407 23.46C4.07193 22.8028 3.77339 22.1938 3.36452 21.6368L2.55843 22.2286L1.75234 22.8204C2.02179 23.1874 2.21122 23.5774 2.32671 23.9941L3.29039 23.7271ZM2.55843 22.2286L3.36452 21.6368L2.85578 20.9439L2.04969 21.5357L1.2436 22.1275L1.75234 22.8204L2.55843 22.2286ZM2.04969 21.5357L2.85578 20.9439L2.34704 20.2509L1.54095 20.8427L0.734857 21.4345L1.2436 22.1275L2.04969 21.5357ZM1.54095 20.8427L2.34704 20.2509C2.12821 19.9528 2.02598 19.6436 2.02168 19.2976L1.02176 19.31L0.0218339 19.3225C0.0314602 20.0961 0.275359 20.8086 0.734857 21.4345L1.54095 20.8427ZM1.02176 19.31L2.02168 19.2976L2.01123 18.4578L1.01131 18.4703L0.0113853 18.4827L0.0218339 19.3225L1.02176 19.31ZM1.01131 18.4703L2.01123 18.4578L2.00078 17.6181L1.00086 17.6306L0.000936866 17.643L0.0113853 18.4827L1.01131 18.4703ZM1.00086 17.6306L2.00078 17.6181C1.99444 17.1088 2.02663 16.6078 2.09697 16.1147L1.10699 15.9735L0.117004 15.8323C0.0319074 16.4289 -0.00665736 17.0327 0.000936866 17.643L1.00086 17.6306ZM1.10699 15.9735L2.09697 16.1147L2.21354 15.2973L1.22356 15.1561L0.23358 15.0149L0.117004 15.8323L1.10699 15.9735ZM1.22356 15.1561L2.21354 15.2973L2.33012 14.4799L1.34014 14.3387L0.350155 14.1975L0.23358 15.0149L1.22356 15.1561ZM1.34014 14.3387L2.33012 14.4799C2.40115 13.9819 2.50698 13.492 2.64769 13.0097L1.68771 12.7296L0.727743 12.4495C0.560442 13.0229 0.434561 13.6057 0.350155 14.1975L1.34014 14.3387ZM1.68771 12.7296L2.64769 13.0097L2.87869 12.218L1.91872 11.9379L0.958745 11.6578L0.727743 12.4495L1.68771 12.7296ZM1.91872 11.9379L2.87869 12.218L3.10969 11.4263L2.14972 11.1462L1.18975 10.8661L0.958745 11.6578L1.91872 11.9379ZM2.14972 11.1462L3.10969 11.4263C3.22037 11.047 3.40728 10.7158 3.67716 10.4227L2.94139 9.74542L2.20562 9.06818C1.72793 9.58716 1.38707 10.1899 1.18975 10.8661L2.14972 11.1462ZM2.94139 9.74542L3.67716 10.4227L4.23783 9.81353L3.50206 9.13629L2.76629 8.45906L2.20562 9.06818L2.94139 9.74542ZM3.50206 9.13629L4.23783 9.81353L4.7985 9.2044L4.06273 8.52717L3.32696 7.84993L2.76629 8.45906L3.50206 9.13629ZM4.06273 8.52717L4.7985 9.2044C5.21156 8.75563 5.58036 8.27698 5.90403 7.76869L5.06052 7.23157L4.21702 6.69445C3.95785 7.10145 3.66146 7.48653 3.32696 7.84993L4.06273 8.52717ZM5.06052 7.23157L5.90403 7.76869L6.34115 7.08222L5.49765 6.5451L4.65414 6.00798L4.21702 6.69445L5.06052 7.23157ZM5.49765 6.5451L6.34115 7.08222L6.77828 6.39574L5.93477 5.85863L5.09126 5.32151L4.65414 6.00798L5.49765 6.5451ZM5.93477 5.85863L6.77828 6.39574C7.00495 6.03977 7.2863 5.73562 7.62673 5.47949L7.02553 4.6804L6.42432 3.8813C5.89324 4.28085 5.44742 4.76219 5.09126 5.32151L5.93477 5.85863ZM7.02553 4.6804L7.62673 5.47949L8.28036 4.98773L7.67916 4.18863L7.07796 3.38954L6.42432 3.8813L7.02553 4.6804ZM7.67916 4.18863L8.28036 4.98773L8.93399 4.49597L8.33279 3.69687L7.73159 2.89778L7.07796 3.38954L7.67916 4.18863ZM8.33279 3.69687L8.93399 4.49597C9.25579 4.25387 9.60908 4.09097 10.0027 4.00333L9.78535 3.02723L9.56802 2.05113C8.89639 2.20067 8.2813 2.4842 7.73159 2.89778L8.33279 3.69687ZM9.78535 3.02723L10.0027 4.00333L10.8016 3.82545L10.5843 2.84935L10.3669 1.87325L9.56802 2.05113L9.78535 3.02723ZM10.5843 2.84935L10.8016 3.82545L11.6005 3.64756L11.3832 2.67146L11.1659 1.69537L10.3669 1.87325L10.5843 2.84935ZM11.3832 2.67146L11.6005 3.64756C12.2191 3.50984 12.8143 3.29248 13.3846 2.99764L12.9253 2.10934L12.4661 1.22104C12.0454 1.43852 11.6125 1.59591 11.1659 1.69537L11.3832 2.67146ZM12.9253 2.10934L13.3846 2.99764L14.1278 2.6134L13.6685 1.7251L13.2092 0.836801L12.4661 1.22104L12.9253 2.10934ZM13.6685 1.7251L14.1278 2.6134L14.871 2.22916L14.4117 1.34086L13.9524 0.452562L13.2092 0.836801L13.6685 1.7251ZM14.4117 1.34086L14.871 2.22916C15.0797 2.12122 15.2381 2.05881 15.3515 2.02643C15.469 1.99287 15.501 2.00223 15.4734 1.99909L15.5859 1.00544L15.6984 0.0117966C15.1025 -0.0557066 14.4863 0.17652 13.9524 0.452562L14.4117 1.34086ZM15.5859 1.00544L15.4734 1.99909L15.9044 2.04791L16.0169 1.05426L16.1295 0.060616L15.6984 0.0117966L15.5859 1.00544ZM16.0169 1.05426L15.9044 2.04791L16.3354 2.09673L16.4479 1.10308L16.5605 0.109435L16.1295 0.060616L16.0169 1.05426ZM16.4479 1.10308L16.3354 2.09673C16.4775 2.11283 16.577 2.12485 16.6383 2.13307C16.6712 2.13747 16.6817 2.13929 16.679 2.13881C16.6774 2.13852 16.6722 2.1376 16.6645 2.13604C16.658 2.13472 16.6424 2.13146 16.6217 2.12611C16.6105 2.12321 16.5546 2.10903 16.486 2.07988C16.4574 2.06771 16.3706 2.03008 16.2746 1.9573C16.2254 1.92006 16.14 1.84851 16.0607 1.73554C15.9785 1.6186 15.8789 1.42148 15.8789 1.16086H16.8789H17.8789C17.8789 0.657382 17.5259 0.396187 17.4824 0.363229C17.3858 0.290025 17.2982 0.251938 17.2685 0.239289C17.1977 0.209186 17.1384 0.193945 17.1227 0.189892C17.0786 0.178481 17.0403 0.17165 17.025 0.168966C16.9863 0.162178 16.943 0.15603 16.904 0.150803C16.8217 0.139763 16.7057 0.125882 16.5605 0.109435L16.4479 1.10308ZM16.8789 1.16086H15.8789V1.16982H16.8789H17.8789V1.16086H16.8789ZM16.8789 1.16982H15.8789V1.17878H16.8789H17.8789V1.16982H16.8789ZM16.8789 1.17878H15.8789C15.8789 1.6951 16.2433 1.95627 16.3192 2.00757C16.4328 2.08438 16.5353 2.11881 16.5688 2.12976C16.6494 2.15612 16.7156 2.166 16.7311 2.16836C16.7773 2.17541 16.8154 2.17788 16.8263 2.1786C16.8574 2.18064 16.8879 2.18146 16.9083 2.18191C16.9539 2.18291 17.0141 2.18329 17.0843 2.18331C17.227 2.18334 17.4369 2.18184 17.7118 2.17891L17.7012 1.17897L17.6905 0.179023C17.4172 0.18194 17.2161 0.183338 17.0847 0.183308C17.0178 0.183293 16.9753 0.182902 16.9523 0.182396C16.9385 0.182091 16.9433 0.181977 16.9572 0.182891C16.9596 0.183046 16.9913 0.184909 17.0332 0.191305C17.0465 0.193341 17.1112 0.202885 17.1907 0.228894C17.2236 0.239666 17.3257 0.273922 17.4391 0.350547C17.5147 0.401661 17.8789 0.662649 17.8789 1.17878H16.8789ZM17.7012 1.17897L17.7118 2.17891L18.5341 2.17013L18.5234 1.17019L18.5127 0.170246L17.6905 0.179023L17.7012 1.17897Z" fill="var(--stroke-0, black)"/>
<g id="Vector 125">
<path d="M16.7962 9.18774C16.6116 15.2585 2.95257 20.5705 15.7166 27.4001C15.7166 25.6837 10.0519 23.2386 16.0039 17.7143C14.6496 23.1888 19.4076 24.0799 19.4076 20.2128C23.2212 23.2958 20.459 25.3807 19.9047 27.4001C27.1204 24.6748 23.3802 16.4539 21.9673 15.7363C21.8713 16.8701 21.6381 17.7143 20.7876 17.7143C19.1333 17.7143 22.5446 12.2269 16.7962 9.18774Z" fill="var(--fill-0, white)"/>
<path d="M13.5363 26.2316L13.0639 27.1131L13.5363 26.2316ZM12.3867 25.1505L11.5335 25.672L12.3867 25.1505ZM11.9639 24.4588L11.1107 24.9803L11.9639 24.4588ZM11.5411 23.7671L12.3943 23.2456L11.5411 23.7671ZM10.9005 22.3186L9.93951 22.5951L10.9005 22.3186ZM10.4649 20.805L9.50391 21.0815L10.4649 20.805ZM10.5803 19.2786L9.66271 18.8812L10.5803 19.2786ZM10.9136 18.5092L11.8312 18.9066L10.9136 18.5092ZM11.2468 17.7397L10.3292 17.3423L11.2468 17.7397ZM12.7737 15.8219L12.0804 15.1013L12.7737 15.8219ZM13.3705 15.2478L12.6772 14.5271L13.3705 15.2478ZM14.4493 14.0155L15.2561 14.6063L14.4493 14.0155ZM14.9312 13.3573L14.1244 12.7665L14.9312 13.3573ZM15.4132 12.6991L16.22 13.2899L15.4132 12.6991ZM16.2217 11.2758L15.302 10.8832L16.2217 11.2758ZM16.5484 10.5106L15.6287 10.118L16.5484 10.5106ZM16.875 9.74539L17.7947 10.138L16.875 9.74539ZM17.7987 9.57304L18.5033 8.86344L17.7987 9.57304ZM18.9928 10.7587L18.2882 11.4684L18.9928 10.7587ZM19.7164 12.9643L20.7134 12.8861L19.7164 12.9643ZM19.7797 13.7707L18.7828 13.8489L19.7797 13.7707ZM20.5348 16.5687L21.4795 16.2405L20.5348 16.5687ZM21.1972 16.9133L20.6026 16.1092L21.1972 16.9133ZM22.0607 16.2749L22.6552 17.0789L22.0607 16.2749ZM22.9575 16.669L22.1198 17.2152L22.9575 16.669ZM24.2665 19.6501L23.2717 19.548L24.2665 19.6501ZM24.0939 21.3317L25.0887 21.4338L24.0939 21.3317ZM23.7705 22.9334L22.8158 22.6358L23.7705 22.9334ZM23.2961 24.4551L24.2508 24.7527L23.2961 24.4551ZM21.1893 26.8261L20.5368 26.0684L21.1893 26.8261ZM20.545 26.7151L21.5445 26.6826V26.6826L20.545 26.7151ZM20.5028 25.4198L21.5023 25.3872L20.5028 25.4198ZM20.6938 23.9927L21.6587 24.2553L20.6938 23.9927ZM20.9059 23.2133L19.941 22.9507L20.9059 23.2133ZM21.118 22.4338L20.1531 22.1713L21.118 22.4338ZM20.5872 21.4954L20.3779 22.4732L20.5872 21.4954ZM20.2157 21.4158L20.425 20.438L20.2157 21.4158ZM19.0819 21.5668L19.3713 22.524L19.0819 21.5668ZM18.3196 21.7973L18.0301 20.8401L18.3196 21.7973ZM17.5572 22.0278L17.2678 21.0706L17.5572 22.0278ZM16.4531 21.5097L17.3628 21.0944L16.4531 21.5097ZM15.7695 20.0125L14.8599 20.4279L15.7695 20.0125ZM15.1842 19.0991L15.7447 18.271L15.1842 19.0991ZM14.9407 18.9343L15.5012 18.1061L14.9407 18.9343ZM14.6971 18.7695L15.2576 17.9413L14.6971 18.7695ZM14.32 19.4233L13.333 19.2622L14.32 19.4233ZM14.0527 21.0606L15.0396 21.2217L14.0527 21.0606ZM14.7302 25.375L13.8593 25.8664L14.7302 25.375ZM15.4919 26.7251L16.3629 26.2337L15.4919 26.7251ZM14.263 26.6211L14.7354 25.7397L14.0086 25.3502L13.5363 26.2316L13.0639 27.1131L13.7907 27.5025L14.263 26.6211ZM13.5363 26.2316L14.0086 25.3502C13.678 25.173 13.4274 24.9357 13.2399 24.6289L12.3867 25.1505L11.5335 25.672C11.9097 26.2875 12.4255 26.7709 13.0639 27.1131L13.5363 26.2316ZM12.3867 25.1505L13.2399 24.6289L12.8171 23.9372L11.9639 24.4588L11.1107 24.9803L11.5335 25.672L12.3867 25.1505ZM11.9639 24.4588L12.8171 23.9372L12.3943 23.2456L11.5411 23.7671L10.6879 24.2886L11.1107 24.9803L11.9639 24.4588ZM11.5411 23.7671L12.3943 23.2456C12.1578 22.8586 11.9812 22.4579 11.8615 22.042L10.9005 22.3186L9.93951 22.5951C10.1102 23.1883 10.3607 23.7533 10.6879 24.2886L11.5411 23.7671ZM10.9005 22.3186L11.8615 22.042L11.6437 21.2852L10.6827 21.5618L9.72171 21.8383L9.93951 22.5951L10.9005 22.3186ZM10.6827 21.5618L11.6437 21.2852L11.4259 20.5284L10.4649 20.805L9.50391 21.0815L9.72171 21.8383L10.6827 21.5618ZM10.4649 20.805L11.4259 20.5284C11.3492 20.2618 11.3616 19.9911 11.498 19.6761L10.5803 19.2786L9.66271 18.8812C9.3548 19.5922 9.29022 20.339 9.50391 21.0815L10.4649 20.805ZM10.5803 19.2786L11.498 19.6761L11.8312 18.9066L10.9136 18.5092L9.99595 18.1118L9.66271 18.8812L10.5803 19.2786ZM10.9136 18.5092L11.8312 18.9066L12.1645 18.1371L11.2468 17.7397L10.3292 17.3423L9.99595 18.1118L10.9136 18.5092ZM11.2468 17.7397L12.1645 18.1371C12.3347 17.7441 12.569 17.4065 12.8702 17.1167L12.1769 16.3961L11.4836 15.6754C10.9891 16.1512 10.6033 16.7093 10.3292 17.3423L11.2468 17.7397ZM12.1769 16.3961L12.8702 17.1167L13.467 16.5426L12.7737 15.8219L12.0804 15.1013L11.4836 15.6754L12.1769 16.3961ZM12.7737 15.8219L13.467 16.5426L14.0638 15.9684L13.3705 15.2478L12.6772 14.5271L12.0804 15.1013L12.7737 15.8219ZM13.3705 15.2478L14.0638 15.9684C14.5025 15.5463 14.9002 15.0922 15.2561 14.6063L14.4493 14.0155L13.6424 13.4247C13.3557 13.8163 13.0342 14.1837 12.6772 14.5271L13.3705 15.2478ZM14.4493 14.0155L15.2561 14.6063L15.738 13.9481L14.9312 13.3573L14.1244 12.7665L13.6424 13.4247L14.4493 14.0155ZM14.9312 13.3573L15.738 13.9481L16.22 13.2899L15.4132 12.6991L14.6064 12.1083L14.1244 12.7665L14.9312 13.3573ZM15.4132 12.6991L16.22 13.2899C16.5872 12.7884 16.8944 12.2473 17.1415 11.6684L16.2217 11.2758L15.302 10.8832C15.1136 11.3246 14.8817 11.7323 14.6064 12.1083L15.4132 12.6991ZM16.2217 11.2758L17.1415 11.6684L17.4681 10.9032L16.5484 10.5106L15.6287 10.118L15.302 10.8832L16.2217 11.2758ZM16.5484 10.5106L17.4681 10.9032L17.7947 10.138L16.875 9.74539L15.9553 9.35281L15.6287 10.118L16.5484 10.5106ZM16.875 9.74539L17.7947 10.138C17.822 10.0741 17.8271 10.0859 17.7889 10.1272C17.7435 10.1762 17.6324 10.2692 17.4526 10.3027C17.2741 10.336 17.1402 10.2897 17.0854 10.2635C17.039 10.2413 17.0426 10.2315 17.0941 10.2826L17.7987 9.57304L18.5033 8.86344C18.2504 8.61235 17.7497 8.2128 17.0858 8.33667C16.4145 8.46193 16.0959 9.0234 15.9553 9.35281L16.875 9.74539ZM17.7987 9.57304L17.0941 10.2826L17.6911 10.8755L18.3957 10.1659L19.1003 9.45629L18.5033 8.86344L17.7987 9.57304ZM18.3957 10.1659L17.6911 10.8755L18.2882 11.4684L18.9928 10.7587L19.6974 10.0491L19.1003 9.45629L18.3957 10.1659ZM18.9928 10.7587L18.2882 11.4684C18.5238 11.7023 18.6336 11.9476 18.6562 12.2362L19.6531 12.158L20.6501 12.0797C20.5884 11.2932 20.2579 10.6056 19.6974 10.0491L18.9928 10.7587ZM19.6531 12.158L18.6562 12.2362L18.7195 13.0426L19.7164 12.9643L20.7134 12.8861L20.6501 12.0797L19.6531 12.158ZM19.7164 12.9643L18.7195 13.0426L18.7828 13.8489L19.7797 13.7707L20.7767 13.6924L20.7134 12.8861L19.7164 12.9643ZM19.7797 13.7707L18.7828 13.8489C18.8307 14.4592 18.9434 15.0347 19.129 15.5691L20.0736 15.2409L21.0183 14.9128C20.8964 14.562 20.8132 14.1574 20.7767 13.6924L19.7797 13.7707ZM20.0736 15.2409L19.129 15.5691L19.3596 16.2329L20.3042 15.9048L21.2489 15.5767L21.0183 14.9128L20.0736 15.2409ZM20.3042 15.9048L19.3596 16.2329L19.5902 16.8968L20.5348 16.5687L21.4795 16.2405L21.2489 15.5767L20.3042 15.9048ZM20.5348 16.5687L19.5902 16.8968C19.6853 17.1705 19.887 17.6308 20.3541 17.8739C20.9451 18.1814 21.4942 17.9374 21.7917 17.7174L21.1972 16.9133L20.6026 16.1092C20.6076 16.1056 20.6767 16.0542 20.8048 16.0295C20.9529 16.001 21.1239 16.0199 21.2773 16.0997C21.4134 16.1705 21.4775 16.2588 21.4928 16.2815C21.5085 16.3049 21.4999 16.2994 21.4795 16.2405L20.5348 16.5687ZM21.1972 16.9133L21.7917 17.7174L22.2235 17.3982L21.6289 16.5941L21.0344 15.79L20.6026 16.1092L21.1972 16.9133ZM21.6289 16.5941L22.2235 17.3982L22.6552 17.0789L22.0607 16.2749L21.4661 15.4708L21.0344 15.79L21.6289 16.5941ZM22.0607 16.2749L22.6552 17.0789C22.6206 17.1045 22.5395 17.1532 22.4161 17.1703C22.2875 17.1881 22.1752 17.163 22.0984 17.1293C22.0305 17.0994 22.0063 17.0704 22.0211 17.0851C22.0349 17.0989 22.0691 17.1373 22.1198 17.2152L22.9575 16.669L23.7952 16.1229C23.6031 15.8282 23.3188 15.481 22.9031 15.2983C22.3887 15.0722 21.8646 15.1761 21.4661 15.4708L22.0607 16.2749ZM22.9575 16.669L22.1198 17.2152L22.5849 17.9286L23.4226 17.3824L24.2603 16.8363L23.7952 16.1229L22.9575 16.669ZM23.4226 17.3824L22.5849 17.9286L23.05 18.642L23.8877 18.0959L24.7254 17.5497L24.2603 16.8363L23.4226 17.3824ZM23.8877 18.0959L23.05 18.642C23.2361 18.9274 23.3057 19.217 23.2717 19.548L24.2665 19.6501L25.2613 19.7522C25.3424 18.9621 25.1594 18.2155 24.7254 17.5497L23.8877 18.0959ZM24.2665 19.6501L23.2717 19.548L23.1854 20.3888L24.1802 20.4909L25.175 20.593L25.2613 19.7522L24.2665 19.6501ZM24.1802 20.4909L23.1854 20.3888L23.0992 21.2297L24.0939 21.3317L25.0887 21.4338L25.175 20.593L24.1802 20.4909ZM24.0939 21.3317L23.0992 21.2297C23.048 21.7278 22.9529 22.196 22.8158 22.6358L23.7705 22.9334L24.7252 23.231C24.9043 22.6564 25.0248 22.0567 25.0887 21.4338L24.0939 21.3317ZM23.7705 22.9334L22.8158 22.6358L22.5786 23.3966L23.5333 23.6943L24.488 23.9919L24.7252 23.231L23.7705 22.9334ZM23.5333 23.6943L22.5786 23.3966L22.3414 24.1575L23.2961 24.4551L24.2508 24.7527L24.488 23.9919L23.5333 23.6943ZM23.2961 24.4551L22.3414 24.1575C22.2408 24.4802 22.0616 24.7551 21.7831 24.995L22.4357 25.7527L23.0883 26.5104C23.6407 26.0346 24.0351 25.4445 24.2508 24.7527L23.2961 24.4551ZM22.4357 25.7527L21.7831 24.995L21.1599 25.5317L21.8125 26.2894L22.4651 27.0471L23.0883 26.5104L22.4357 25.7527ZM21.8125 26.2894L21.1599 25.5317L20.5368 26.0684L21.1893 26.8261L21.8419 27.5838L22.4651 27.0471L21.8125 26.2894ZM21.1893 26.8261L20.5368 26.0684C20.4643 26.1308 20.4413 26.1397 20.4617 26.1293C20.465 26.1276 20.6316 26.0373 20.8864 26.0812C21.0271 26.1054 21.165 26.1666 21.2816 26.2627C21.3931 26.3546 21.4571 26.4551 21.4919 26.5262C21.5528 26.6511 21.5461 26.7304 21.5445 26.6826L20.545 26.7151L19.5456 26.7477C19.551 26.9158 19.5764 27.1616 19.6946 27.4037C19.8327 27.6866 20.112 27.9773 20.547 28.0522C20.9091 28.1146 21.2082 27.9935 21.369 27.9116C21.547 27.821 21.7067 27.7003 21.8419 27.5838L21.1893 26.8261ZM20.545 26.7151L21.5445 26.6826L21.5234 26.0349L20.5239 26.0675L19.5245 26.1001L19.5456 26.7477L20.545 26.7151ZM20.5239 26.0675L21.5234 26.0349L21.5023 25.3872L20.5028 25.4198L19.5033 25.4524L19.5245 26.1001L20.5239 26.0675ZM20.5028 25.4198L21.5023 25.3872C21.4921 25.076 21.5373 24.7015 21.6587 24.2553L20.6938 23.9927L19.7289 23.7301C19.5675 24.3233 19.4853 24.9001 19.5033 25.4524L20.5028 25.4198ZM20.6938 23.9927L21.6587 24.2553L21.8708 23.4759L20.9059 23.2133L19.941 22.9507L19.7289 23.7301L20.6938 23.9927ZM20.9059 23.2133L21.8708 23.4759L22.0829 22.6964L21.118 22.4338L20.1531 22.1713L19.941 22.9507L20.9059 23.2133ZM21.118 22.4338L22.0829 22.6964C22.1651 22.3945 22.2359 22.0157 22.1675 21.647C22.1303 21.4467 22.0442 21.207 21.8563 20.9951C21.6607 20.7744 21.4129 20.6495 21.168 20.597L20.9587 21.5749L20.7494 22.5527C20.6283 22.5268 20.48 22.4575 20.3596 22.3217C20.2469 22.1946 20.2116 22.0689 20.201 22.0118C20.191 21.9579 20.1978 21.9403 20.1936 21.979C20.1897 22.0141 20.1789 22.0764 20.1531 22.1713L21.118 22.4338ZM20.9587 21.5749L21.168 20.597L20.7965 20.5175L20.5872 21.4954L20.3779 22.4732L20.7494 22.5527L20.9587 21.5749ZM20.5872 21.4954L20.7965 20.5175L20.425 20.438L20.2157 21.4158L20.0064 22.3937L20.3779 22.4732L20.5872 21.4954ZM20.2157 21.4158L20.425 20.438C19.9113 20.328 19.3216 20.4497 18.7925 20.6096L19.0819 21.5668L19.3713 22.524C19.5923 22.4572 19.759 22.421 19.8785 22.4051C20.0054 22.3882 20.0363 22.4001 20.0064 22.3937L20.2157 21.4158ZM19.0819 21.5668L18.7925 20.6096L18.0301 20.8401L18.3196 21.7973L18.609 22.7545L19.3713 22.524L19.0819 21.5668ZM18.3196 21.7973L18.0301 20.8401L17.2678 21.0706L17.5572 22.0278L17.8466 22.985L18.609 22.7545L18.3196 21.7973ZM17.5572 22.0278L17.2678 21.0706C17.221 21.0848 17.2087 21.0818 17.224 21.0821C17.2322 21.0823 17.2464 21.0834 17.2651 21.0876C17.284 21.0919 17.3044 21.0987 17.3248 21.1083C17.3682 21.1286 17.3921 21.1522 17.3984 21.1593C17.4025 21.1639 17.3873 21.1481 17.3628 21.0944L16.4531 21.5097L15.5434 21.9251C15.7212 22.3145 16.0117 22.7014 16.4752 22.9189C16.9441 23.1389 17.4303 23.1109 17.8466 22.985L17.5572 22.0278ZM16.4531 21.5097L17.3628 21.0944L17.021 20.3458L16.1113 20.7611L15.2016 21.1765L15.5434 21.9251L16.4531 21.5097ZM16.1113 20.7611L17.021 20.3458L16.6792 19.5972L15.7695 20.0125L14.8599 20.4279L15.2016 21.1765L16.1113 20.7611ZM15.7695 20.0125L16.6792 19.5972C16.5546 19.3243 16.4267 19.0771 16.2943 18.8704C16.1749 18.6841 15.9969 18.4416 15.7447 18.271L15.1842 19.0991L14.6237 19.9273C14.5689 19.8902 14.547 19.862 14.555 19.8712C14.5607 19.8779 14.5795 19.9013 14.6104 19.9494C14.673 20.0472 14.7566 20.2018 14.8599 20.4279L15.7695 20.0125ZM15.1842 19.0991L15.7447 18.271L15.5012 18.1061L14.9407 18.9343L14.3802 19.7625L14.6237 19.9273L15.1842 19.0991ZM14.9407 18.9343L15.5012 18.1061L15.2576 17.9413L14.6971 18.7695L14.1367 19.5977L14.3802 19.7625L14.9407 18.9343ZM14.6971 18.7695L15.2576 17.9413C15.0306 17.7877 14.6526 17.6541 14.231 17.8123C13.8774 17.9449 13.6938 18.214 13.6149 18.3509C13.4541 18.6296 13.3793 18.9785 13.333 19.2622L14.32 19.4233L15.3069 19.5844C15.3253 19.4718 15.3427 19.3947 15.3563 19.3462C15.372 19.2905 15.3741 19.3038 15.3473 19.3502C15.3312 19.3782 15.215 19.5792 14.9335 19.6849C14.5839 19.816 14.2825 19.6964 14.1367 19.5977L14.6971 18.7695ZM14.32 19.4233L13.333 19.2622L13.1994 20.0809L14.1863 20.242L15.1733 20.4031L15.3069 19.5844L14.32 19.4233ZM14.1863 20.242L13.1994 20.0809L13.0658 20.8995L14.0527 21.0606L15.0396 21.2217L15.1733 20.4031L14.1863 20.242ZM14.0527 21.0606L13.0658 20.8995C12.9625 21.5321 12.9482 22.1464 13.038 22.7352L14.0266 22.5844L15.0152 22.4336C14.9616 22.0822 14.9647 21.6807 15.0396 21.2217L14.0527 21.0606ZM14.0266 22.5844L13.038 22.7352L13.1456 23.4404L14.1342 23.2896L15.1227 23.1388L15.0152 22.4336L14.0266 22.5844ZM14.1342 23.2896L13.1456 23.4404L13.2532 24.1456L14.2417 23.9948L15.2303 23.844L15.1227 23.1388L14.1342 23.2896ZM14.2417 23.9948L13.2532 24.1456C13.3447 24.7454 13.551 25.3201 13.8593 25.8664L14.7302 25.375L15.6011 24.8836C15.4015 24.5299 15.2822 24.1844 15.2303 23.844L14.2417 23.9948ZM14.7302 25.375L13.8593 25.8664L14.2401 26.5415L15.1111 26.0501L15.982 25.5586L15.6011 24.8836L14.7302 25.375ZM15.1111 26.0501L14.2401 26.5415L14.621 27.2165L15.4919 26.7251L16.3629 26.2337L15.982 25.5586L15.1111 26.0501ZM15.4919 26.7251L14.621 27.2165C14.7466 27.439 14.8294 27.5916 14.8757 27.6831C14.9017 27.7345 14.9031 27.741 14.8956 27.7218C14.8928 27.7146 14.8866 27.6983 14.8794 27.6756C14.8736 27.6568 14.8595 27.61 14.8494 27.5468C14.8444 27.5155 14.8122 27.3309 14.8802 27.1069C14.9196 26.9771 15.0085 26.7833 15.2048 26.6237C15.4117 26.4554 15.6453 26.4001 15.8338 26.4001V27.4001V28.4001C16.0239 28.4001 16.2589 28.3444 16.4668 28.1752C16.6642 28.0147 16.7539 27.8196 16.7939 27.6881C16.8629 27.4606 16.8306 27.2707 16.8245 27.2323C16.8055 27.1126 16.7678 27.0179 16.7585 26.9941C16.729 26.9186 16.6909 26.8407 16.66 26.7796C16.5924 26.6461 16.4913 26.4612 16.3629 26.2337L15.4919 26.7251ZM15.8338 27.4001V26.4001H15.7947V27.4001V28.4001H15.8338V27.4001ZM15.7947 27.4001V26.4001H15.7557V27.4001V28.4001H15.7947V27.4001ZM15.7557 27.4001V26.4001C15.8477 26.4001 15.9187 26.4132 15.9496 26.4194C15.9866 26.4268 16.0155 26.4349 16.0326 26.4399C16.0661 26.4499 16.0901 26.4591 16.098 26.4622C16.1154 26.469 16.1225 26.4726 16.1122 26.4678C16.0944 26.4596 16.0582 26.4421 15.998 26.4114C15.8801 26.3515 15.7027 26.2582 15.4622 26.1292L14.9898 27.0106L14.5175 27.892C14.7614 28.0228 14.9539 28.1242 15.0913 28.1941C15.1587 28.2284 15.2216 28.2595 15.2741 28.2838C15.2989 28.2952 15.3341 28.311 15.3723 28.3259C15.3906 28.333 15.4233 28.3453 15.4636 28.3573C15.4764 28.3611 15.5984 28.4001 15.7557 28.4001V27.4001ZM14.9898 27.0106L15.4622 26.1292L14.7354 25.7397L14.263 26.6211L13.7907 27.5025L14.5175 27.892L14.9898 27.0106Z" fill="var(--stroke-0, black)"/>
</g>
</g>
</svg>
