<svg preserveAspectRatio="none" width="100%" height="100%" overflow="visible" style="display: block;" viewBox="0 0 465.369 232.374" fill="none" xmlns="http://www.w3.org/2000/svg">
<path id="Vector 173" d="M230.167 21.7359C230.125 21.7359 230.082 21.7359 201.716 21.7712C173.351 21.8065 116.663 21.8772 84.397 22.4335C45.9789 23.096 38.2882 25.6241 34.8758 27.0301C23.6738 31.6458 15.497 39.9794 9.89103 47.8832C5.89691 53.5144 3.16634 62.0986 1.99962 73.9029C0.253298 91.5713 3.37794 110.354 6.82743 125.076C10.614 141.236 20.2951 158.669 29.3608 174.484C34.8887 184.128 41.5873 190.25 50.5959 197.711C55.6844 201.925 62.5419 206.101 72.8398 210.972C83.1376 215.843 96.8518 221.05 111.041 224.528C125.23 228.007 139.478 229.599 155.892 230.402C172.306 231.206 190.454 231.172 213.152 228.788C235.85 226.405 262.548 221.673 290.93 214.264C319.312 206.856 348.569 196.914 365.619 190.826C386.795 183.265 396.439 176.537 411.194 166.571C431.613 152.779 446.616 145.269 450.232 141.801C459.02 133.373 461.378 119.149 463.322 94.2831C464.445 79.9248 463.517 54.7545 463.352 40.7076C463.117 20.8018 461.005 16.8105 459.471 14.4916C458.719 13.3532 457.537 12.649 431.454 10.1756C405.371 7.7022 354.299 3.57211 322.786 2.10434C291.272 0.636577 280.864 1.95628 268.826 4.83258C256.789 7.70888 243.436 12.1018 233.469 14.9519C217.324 18.9761 209.084 21.0888 202.751 24.5882C198.292 27.1848 191.306 31.4477 184.109 35.8398" stroke="var(--stroke-0, #8EE05F)" stroke-width="3" stroke-linecap="round" stroke-linejoin="round"/>
</svg>
