<svg preserveAspectRatio="none" width="100%" height="100%" overflow="visible" style="display: block;" viewBox="0 0 498.848 211.226" fill="none" xmlns="http://www.w3.org/2000/svg">
<path id="Vector 175" d="M327.805 23.3451C327.805 23.2852 321.708 22.7545 294.35 18.7608C273.031 15.6486 236.852 8.79424 202.661 5.27681C168.469 1.75938 137.421 1.39339 119.264 1.52076C101.107 1.64813 96.7819 2.27996 92.5945 3.18439C84.4192 4.95018 77.216 7.89709 71.0878 10.9379C65.4866 13.7173 61.1712 17.925 55.9999 23.9271C52.6984 27.7591 48.744 33.781 39.9898 51.228C31.2355 68.675 17.9859 97.5163 10.7091 114.089C2.02115 133.875 1.49736 140.645 1.50001 145.781C1.50169 149.044 9.51262 157.908 23.2622 171.746C29.5387 178.063 35.2398 182.077 41.7419 186.127C48.244 190.178 55.591 193.921 63.7556 197.133C71.9201 200.344 80.6796 202.911 104.304 205.487C127.929 208.063 166.153 210.571 198.901 209.453C231.649 208.335 257.763 203.515 297.879 191.949C337.995 180.383 391.322 162.216 420.761 151.761C450.199 141.306 454.134 139.113 457.011 137.382C461.671 134.579 466.643 130.099 473.383 123.027C477.002 119.23 480.305 114.355 483.571 108.229C486.838 102.103 489.785 94.7056 491.788 88.9627C493.792 83.2199 494.764 79.3559 495.589 73.0105C497.54 58.0094 497.589 48.0209 497.062 45.9878C496.45 43.6233 488.718 35.5243 477.929 24.4004C472.852 19.1656 470.211 17.9246 461.599 15.8933C454.161 14.1388 440.246 12.063 424.727 10.7542C409.208 9.44538 392.442 9.26005 368.805 12.1786C345.169 15.0972 315.168 21.1253 284.259 27.3361" stroke="var(--stroke-0, #FFC636)" stroke-width="3" stroke-linecap="round" stroke-linejoin="round"/>
</svg>
