<svg preserveAspectRatio="none" width="100%" height="100%" overflow="visible" style="display: block;" viewBox="0 0 21.2534 13.2829" fill="none" xmlns="http://www.w3.org/2000/svg">
<path id="Vector 176" d="M8.62335 9.3846C11.3356 9.36142 17.5109 9.0831 18.3656 8.50173C19.3215 7.85146 19.7124 6.6749 19.7525 5.60968C19.7725 5.07889 19.424 4.58575 19.0837 4.25988C16.824 2.09617 9.41798 3.81575 6.16437 4.5159C4.72884 4.82481 3.56101 5.79519 2.62438 6.5725C1.81146 7.24714 1.53036 8.22011 1.50059 9.13807C1.48519 9.61303 1.81007 10.0871 2.34888 10.4933C4.70035 12.2658 8.43854 11.9336 11.3831 11.1423C14.4181 10.3268 15.5353 6.61056 16.4326 4.33433C16.628 3.83861 16.5718 3.33292 16.3562 2.94002C14.6171 -0.229367 6.86511 2.6098 4.94631 4.0736C4.14424 4.68547 3.93547 5.70274 3.88578 6.57381C3.86055 7.01603 4.17194 7.44601 4.68116 7.78984C5.85733 8.58401 7.76246 8.65552 9.34268 8.49344C9.9419 8.2997 10.1296 7.8796 9.95379 7.54387C9.77797 7.20815 9.2329 6.96955 8.23098 6.722" stroke="var(--stroke-0, #FFC636)" stroke-width="3" stroke-linecap="round" stroke-linejoin="round"/>
</svg>
