<svg preserveAspectRatio="none" width="100%" height="100%" overflow="visible" style="display: block;" viewBox="0 0 16.3514 18.2847" fill="none" xmlns="http://www.w3.org/2000/svg">
<path id="Vector 177" d="M3.34942 9.5785C3.68299 9.77924 9.61202 9.95373 13.5049 8.69402C16.0492 7.87068 14.2909 3.34772 13.8323 2.54979C13.3155 1.65056 11.5133 1.47566 9.5704 1.50258C6.71729 1.54212 3.90662 4.65666 2.16024 6.94118C1.44324 7.87913 1.47923 9.03493 1.52013 9.90411C1.63366 12.3169 5.03002 14.8102 6.94844 16.0389C8.13759 16.8005 9.67922 16.772 10.856 16.7846C11.8816 16.7955 12.7219 16.1134 13.4171 15.2476C14.81 13.513 14.649 11.7471 14.5097 10.7869C14.0712 7.76414 5.46422 9.87341 3.20434 11.279C2.68933 11.5993 2.95079 12.6497 3.08379 13.2751C3.21679 13.9006 3.5125 14.3195 3.91928 14.6069C4.74564 15.1907 5.91447 15.1604 6.95364 14.9955C8.83426 14.697 9.70996 12.3984 10.3346 10.556C10.4907 10.0956 10.4131 9.60122 10.1822 9.29436C9.95124 8.9875 9.48533 8.86255 9.01039 9.05233C8.53545 9.24211 8.06559 9.75042 7.80545 10.4191C7.5453 11.0878 7.50911 11.9014 7.47183 12.7397" stroke="var(--stroke-0, #FFC636)" stroke-width="3" stroke-linecap="round" stroke-linejoin="round"/>
</svg>
