<svg preserveAspectRatio="none" width="100%" height="100%" overflow="visible" style="display: block;" viewBox="0 0 20.8951 16.7932" fill="none" xmlns="http://www.w3.org/2000/svg">
<path id="Vector 178" d="M9.28832 11.9179C9.25213 11.9179 9.62532 12.2639 10.8104 12.7882C12.625 13.591 14.4666 12.6742 15.317 11.9794C17.1897 10.4491 16.9381 5.95099 16.191 3.18608C15.9395 2.25519 14.5028 2.00465 12.8108 1.67268C10.3301 1.18594 8.02346 1.80014 6.43848 2.63364C2.8961 4.49646 2.06471 7.42673 1.5683 9.70115C1.43971 10.2903 1.50286 10.9348 1.67377 11.4985C2.4116 13.932 8.05434 14.958 14.6955 15.2879C16.384 15.3718 17.1802 14.4508 17.8689 13.6581C18.6885 12.7149 19.064 11.4745 19.2969 10.1988C19.5895 8.59651 19.1871 7.19243 18.6434 6.39985C17.5451 4.7989 11.0324 5.12785 7.21032 5.44837C4.62122 5.6655 3.43816 8.93996 3.19103 10.6284C2.86126 12.8814 8.42261 10.7171 10.6158 9.79107C11.7876 9.29632 12.5661 8.2972 13.1917 7.35702C13.8784 6.32503 14.0349 5.07382 13.9154 4.13437C13.8601 3.69896 13.286 3.50136 12.7874 3.38612C11.7694 3.15085 10.67 3.69928 9.74076 4.52015C8.5559 6.24599 8.042 7.59529 7.87903 8.56493C7.81784 9.10936 7.80031 9.76016 7.83879 10.5438" stroke="var(--stroke-0, #FFC636)" stroke-width="3" stroke-linecap="round" stroke-linejoin="round"/>
</svg>
