<svg preserveAspectRatio="none" width="100%" height="100%" overflow="visible" style="display: block;" viewBox="0 0 426.02 253.72" fill="none" xmlns="http://www.w3.org/2000/svg">
<path id="Vector 179" d="M18.8157 187.193C18.8906 189.785 20.6287 198.46 32.678 221.388C37.2298 230.05 48.2855 233.902 73.0198 239.769C89.5982 243.701 115.062 246.202 142.031 247.884C168.999 249.567 196.882 249.494 236.727 244.949C276.572 240.405 327.535 231.393 355.016 226.301C385.033 220.739 388.785 218.656 391.398 217.071C398.499 212.764 407.771 195.78 416.722 173.949C423.921 156.391 424.552 135.852 424.519 121.785C424.478 104.379 412.276 85.0779 405.62 73.8167C399.76 63.9039 392.661 53.9667 387.786 47.7808C385.128 44.4067 373.439 37.5123 357.135 27.9595C346.653 21.8174 327.755 15.5949 302.159 7.57052C284.484 2.02958 275.762 1.43555 254.383 1.50494C234.319 1.57006 195.548 1.75005 162.808 3.97439C130.069 6.19873 104.536 10.4758 87.8477 13.9314C63.8617 18.8981 48.6109 27.5634 34.7639 36.6531C20.3813 46.0944 16.3164 60.4108 10.292 80.3227C6.81726 91.8076 4.40062 106.63 2.88301 126.538C1.36541 146.447 1.30734 171.13 1.71751 186.266C2.25983 206.28 5.238 214.334 9.2402 222.025C15.9135 232.609 23.1996 242.509 28.4889 248.525C30.6075 250.815 31.5778 251.555 33.4342 252.219" stroke="var(--stroke-0, #FF3636)" stroke-width="3" stroke-linecap="round" stroke-linejoin="round"/>
</svg>
