<svg preserveAspectRatio="none" width="100%" height="100%" overflow="visible" style="display: block;" viewBox="0 0 147.827 199.721" fill="none" xmlns="http://www.w3.org/2000/svg">
<path id="Vector 181" d="M3.89547 4.45887C3.86249 4.45887 3.82951 4.45886 3.79603 34.2037C3.76255 63.9485 3.72957 123.438 3.80534 154.835C3.88473 187.733 4.25776 191.282 4.57829 194.028C4.91284 196.895 13.123 191.544 24.1365 190.637C31.59 190.022 42.9086 190.41 55.0677 191.538C67.2268 192.665 79.9037 194.856 94.7035 196.21C109.503 197.564 126.042 198.015 134.965 198.166C143.888 198.318 144.694 198.157 145.226 197.653C147.602 195.4 145.49 191.196 144.84 172.359C144.238 154.922 144.223 121.46 143.72 92.5679C143.217 63.6762 142.518 40.361 142.198 27.6179C141.842 13.4127 141.524 11.1881 140.327 10.1276C136.057 6.34408 118.383 12.0488 100.866 11.683C92.8171 11.5149 86.5087 10.4318 76.2462 8.64681C65.9838 6.86179 51.9671 4.1646 38.7588 2.76329C25.5506 1.36198 13.5756 1.33827 1.50001 1.68863" stroke="var(--stroke-0, black)" stroke-width="3" stroke-linecap="round" stroke-linejoin="round"/>
</svg>
