<svg preserveAspectRatio="none" width="100%" height="100%" overflow="visible" style="display: block;" viewBox="0 0 465 316" fill="none" xmlns="http://www.w3.org/2000/svg">
<path id="Vector 181" d="M229.985 29.1135C229.942 29.1135 229.9 29.1135 201.557 29.1617C173.213 29.2099 116.571 29.3063 84.3309 30.0655C45.9434 30.9695 38.2589 34.4193 34.8492 36.338C23.6561 42.6364 15.4859 54.0084 9.88437 64.7938C5.89344 72.478 3.16505 84.1919 1.99926 100.3C0.254336 124.41 3.37648 150.041 6.82322 170.13C10.6068 192.182 20.2802 215.97 29.3386 237.552C34.8621 250.711 41.5554 259.065 50.5567 269.246C55.6412 274.997 62.4932 280.696 72.7829 287.342C83.0725 293.989 96.7757 301.094 110.953 305.841C125.131 310.587 139.368 312.76 155.769 313.856C172.17 314.953 190.304 314.906 212.984 311.654C235.663 308.402 262.34 301.944 290.699 291.835C319.058 281.725 348.292 268.159 365.328 259.852C386.487 249.534 396.124 240.353 410.867 226.753C431.269 207.933 446.261 197.685 449.874 192.952C458.655 181.451 461.011 162.041 462.954 128.11C464.076 108.517 463.149 74.1702 462.983 55.002C462.749 27.8389 460.638 22.3924 459.106 19.2281C458.354 17.6746 457.173 16.7137 431.111 13.3385C405.048 9.96339 354.018 4.32754 322.529 2.32465C291.041 0.321755 280.641 2.12261 268.613 6.04756C256.585 9.97251 243.243 15.967 233.284 19.8562C217.152 25.3476 208.919 28.2305 202.59 33.0058C198.135 36.5491 191.155 42.3661 183.963 48.3595" stroke="var(--stroke-0, #8EE05F)" stroke-width="3" stroke-linecap="round" stroke-linejoin="round"/>
</svg>
