<svg preserveAspectRatio="none" width="100%" height="100%" overflow="visible" style="display: block;" viewBox="0 0 975.825 111.478" fill="none" xmlns="http://www.w3.org/2000/svg">
<path id="Vector 207" d="M1.5 4.10654C1.53798 4.10654 1.57595 4.10654 85.2172 5.61827C168.859 7.13 336.102 10.1535 447.578 10.6856C559.054 11.2178 609.694 9.16703 658.859 11.0593C708.024 12.9516 754.178 18.8491 781.962 21.8547C809.746 24.8603 817.76 24.7954 842.082 20.8503C866.404 16.9052 906.791 9.08194 928.327 5.04381C949.864 1.00568 951.327 0.989754 952.176 2.20049C953.025 3.41122 953.216 5.8491 956.63 19.137C960.044 32.4248 966.675 56.4888 970.18 69.4507C973.981 83.5113 974.123 85.8171 974.289 88.0084C974.371 89.0912 974.461 90.1139 972.609 90.6929C967.183 92.3899 955.092 94.4848 939.826 99.6602C926.455 104.193 915.706 104.419 906.312 104.931C900.741 105.235 893.587 106.324 879.632 107.09C865.677 107.855 845.148 108.442 831.148 108.898C817.147 109.354 810.296 109.661 803.238 109.978" stroke="var(--stroke-0, black)" stroke-width="3" stroke-linecap="round" stroke-linejoin="round"/>
</svg>
