<svg preserveAspectRatio="none" width="100%" height="100%" overflow="visible" style="display: block;" viewBox="0 0 283.867 90.7363" fill="none" xmlns="http://www.w3.org/2000/svg">
<path id="Vector 225" d="M89.5179 11.2398C89.4019 11.0079 70.7645 10.8151 40.1768 11.0595C23.2566 11.1948 16.8958 13.3585 14.2734 14.6841C9.04503 17.3271 5.85108 25.125 2.89108 32.2047C-0.4258 40.138 2.87477 52.0935 5.66108 58.1831C10.7333 69.2686 22.5887 75.1302 31.0703 79.6769C36.3662 82.5158 44.8314 85.1672 61.7867 87.6275C73.5767 89.3383 92.1487 89.2896 107.504 89.2018C134.532 89.0473 147.857 87.2679 154.589 85.9526C169.479 83.0437 191.871 78.2615 215.262 73.5155C234.291 69.6543 250.966 62.5609 264.228 55.9871C270.346 52.9547 274.159 50.1139 278.645 46.4072C283.961 42.0145 282.477 26.3421 280.91 15.9366C280.077 10.4117 269.091 11.8289 261.968 10.9352C256.685 10.2722 243.861 7.51243 215.246 3.76096C196.45 1.29696 168.564 1.65528 153.297 1.5C128.757 3.32974 115.739 6.25509 111.748 6.66332C109.815 6.80549 108.07 6.81572 106.273 6.82627" stroke="var(--stroke-0, #8EE05F)" stroke-width="3" stroke-linecap="round" stroke-linejoin="round"/>
</svg>
